<svg xmlns="http://www.w3.org/2000/svg" xmlns:xlink="http://www.w3.org/1999/xlink" width="1920" zoomAndPan="magnify" viewBox="0 0 1440 809.999993" height="1080" preserveAspectRatio="xMidYMid meet" version="1.0"><path fill="#803bec" d="M 1165.808594 707.136719 L 1037.730469 611.351562 L 316.070312 673.980469 L 275.113281 657.078125 L 272.296875 677.664062 L 426.8125 809.210938 L 1194.628906 728.808594 L 1197.664062 708.003906 Z M 1165.808594 707.136719 " fill-opacity="1" fill-rule="nonzero"/><path fill="#d9d9d9" d="M 278.796875 658.160156 L 1040.113281 592.0625 L 1193.761719 706.921875 L 430.28125 786.886719 Z M 278.796875 658.160156 " fill-opacity="1" fill-rule="nonzero"/><path fill="#803bec" d="M 1039.679688 593.578125 L 1189.863281 705.835938 L 430.929688 785.371094 L 282.699219 659.242188 L 1039.679688 593.578125 M 1040.546875 590.546875 L 275.113281 657.078125 L 429.847656 788.621094 L 1197.664062 708.003906 Z M 1040.546875 590.546875 " fill-opacity="1" fill-rule="nonzero"/><path fill="#803bec" d="M 907.050781 701.503906 L 860.457031 666.613281 L 633.339844 686.332031 L 593.03125 684.164062 L 590.867188 690.015625 L 645.261719 736.394531 L 915.71875 708.003906 L 918.101562 702.152344 Z M 907.050781 701.503906 " fill-opacity="1" fill-rule="nonzero"/><path fill="#d4def9" d="M 593.03125 684.164062 L 647.644531 730.324219 L 918.101562 702.152344 L 862.625 660.761719 Z M 593.03125 684.164062 " fill-opacity="1" fill-rule="nonzero"/><path fill="#d4def9" d="M 626.40625 506.894531 C 585.015625 508.195312 543.1875 519.246094 506.5625 536.367188 C 453.253906 561.070312 393.4375 602.464844 332.542969 575.59375 C 252.792969 540.269531 331.457031 431.042969 319.972656 372.097656 C 311.304688 327.019531 287.25 286.929688 272.730469 243.804688 C 251.058594 179.65625 264.925781 114.425781 330.375 83.867188 C 368.734375 65.882812 413.160156 65.449219 454.984375 71.949219 C 529.753906 83.652344 600.183594 119.625 675.382812 91.019531 C 726.746094 71.515625 786.558594 40.742188 833.152344 87.335938 C 882.128906 136.746094 878.445312 222.78125 883.863281 286.929688 C 889.28125 344.574219 913.550781 398.535156 927.421875 454.015625 C 944.324219 521.628906 880.613281 577.109375 815.597656 564.539062 C 788.292969 559.339844 763.371094 545.683594 738.449219 533.332031 C 703.121094 516.210938 666.5 505.808594 626.40625 506.894531 Z M 626.40625 506.894531 " fill-opacity="1" fill-rule="nonzero"/><path fill="#d4def9" d="M 565.292969 47.027344 L 609.71875 89.503906 C 611.019531 90.804688 613.1875 89.9375 613.1875 87.984375 L 613.1875 2.816406 C 613.1875 0.867188 611.019531 0 609.71875 1.300781 L 565.292969 43.777344 C 564.425781 44.644531 564.425781 46.160156 565.292969 47.027344 Z M 565.292969 47.027344 " fill-opacity="1" fill-rule="nonzero"/><path fill="#d4def9" d="M 586.097656 52.445312 L 561.390625 67.832031 C 560.308594 68.480469 559.007812 67.832031 559.007812 66.53125 L 559.007812 24.488281 C 559.007812 23.1875 560.308594 22.539062 561.390625 23.1875 L 586.097656 39.007812 C 586.53125 39.226562 586.746094 39.875 586.746094 40.308594 L 586.746094 51.144531 C 586.964844 51.578125 586.53125 52.226562 586.097656 52.445312 Z M 586.097656 52.445312 " fill-opacity="1" fill-rule="nonzero"/><path fill="#d4def9" d="M 625.324219 79.316406 C 624.238281 79.316406 623.371094 78.449219 623.371094 77.367188 C 623.371094 76.285156 624.238281 75.417969 625.324219 75.417969 C 642.007812 75.417969 655.445312 61.980469 655.445312 45.292969 C 655.445312 28.605469 642.007812 15.171875 625.324219 15.171875 C 624.238281 15.171875 623.371094 14.304688 623.371094 13.21875 C 623.371094 12.136719 624.238281 11.269531 625.324219 11.269531 C 643.960938 11.269531 659.128906 26.4375 659.128906 45.078125 C 659.347656 64.148438 644.175781 79.316406 625.324219 79.316406 Z M 625.324219 79.316406 " fill-opacity="1" fill-rule="nonzero"/><path fill="#d4def9" d="M 625.324219 70 C 624.238281 70 623.371094 69.132812 623.371094 68.046875 C 623.371094 66.964844 624.238281 66.097656 625.324219 66.097656 C 636.808594 66.097656 646.128906 56.777344 646.128906 45.292969 C 646.128906 33.808594 636.808594 24.488281 625.324219 24.488281 C 624.238281 24.488281 623.371094 23.621094 623.371094 22.539062 C 623.371094 21.453125 624.238281 20.585938 625.324219 20.585938 C 638.757812 20.585938 649.8125 31.640625 649.8125 45.078125 C 649.8125 58.511719 638.976562 70 625.324219 70 Z M 625.324219 70 " fill-opacity="1" fill-rule="nonzero"/><path fill="#d4def9" d="M 625.324219 61.328125 C 624.238281 61.328125 623.371094 60.464844 623.371094 59.378906 C 623.371094 58.296875 624.238281 57.429688 625.324219 57.429688 C 632.039062 57.429688 637.457031 52.011719 637.457031 45.292969 C 637.457031 38.574219 632.039062 33.15625 625.324219 33.15625 C 624.238281 33.15625 623.371094 32.289062 623.371094 31.207031 C 623.371094 30.125 624.238281 29.257812 625.324219 29.257812 C 633.992188 29.257812 641.144531 36.40625 641.144531 45.078125 C 641.144531 54.179688 634.207031 61.328125 625.324219 61.328125 Z M 625.324219 61.328125 " fill-opacity="1" fill-rule="nonzero"/><path fill="#d4def9" d="M 425.730469 348.691406 L 417.277344 348.691406 C 415.761719 342.191406 413.375 335.90625 409.910156 330.488281 L 416.195312 324.203125 C 418.359375 322.035156 418.359375 318.570312 416.195312 316.183594 L 402.757812 302.75 C 400.589844 300.582031 397.125 300.582031 394.738281 302.75 L 388.886719 308.601562 C 383.46875 305.132812 377.183594 302.53125 370.683594 300.800781 L 370.683594 292.128906 C 370.683594 289.097656 368.082031 286.496094 365.050781 286.496094 L 345.980469 286.496094 C 342.945312 286.496094 340.34375 289.097656 340.34375 292.128906 L 340.34375 300.582031 C 333.84375 302.097656 327.558594 304.484375 322.140625 307.949219 L 316.070312 301.882812 C 313.90625 299.714844 310.4375 299.714844 308.054688 301.882812 L 294.617188 315.320312 C 292.449219 317.484375 292.449219 320.953125 294.617188 323.335938 L 300.46875 329.1875 C 297 334.605469 294.402344 340.890625 292.667969 347.390625 L 284 347.390625 C 280.964844 347.390625 278.363281 349.992188 278.363281 353.027344 L 278.363281 372.097656 C 278.363281 375.132812 280.964844 377.730469 284 377.730469 L 292.449219 377.730469 C 293.96875 384.234375 296.351562 390.519531 299.820312 395.9375 L 293.535156 402.222656 C 291.367188 404.386719 291.367188 407.855469 293.535156 410.238281 L 306.96875 423.675781 C 309.136719 425.84375 312.605469 425.84375 314.988281 423.675781 L 320.839844 417.609375 C 326.257812 421.074219 332.542969 423.675781 339.042969 425.410156 L 339.042969 434.078125 C 339.042969 437.113281 341.644531 439.710938 344.679688 439.710938 L 363.75 439.710938 C 366.78125 439.710938 369.382812 437.113281 369.382812 434.078125 L 369.382812 425.625 C 375.886719 424.109375 382.167969 421.726562 387.585938 418.257812 L 393.871094 424.542969 C 396.039062 426.710938 399.507812 426.710938 401.890625 424.542969 L 415.328125 411.105469 C 417.496094 408.9375 417.496094 405.472656 415.328125 403.085938 L 409.476562 397.238281 C 412.941406 391.820312 415.542969 385.535156 417.277344 379.03125 L 425.945312 379.03125 C 428.980469 379.03125 431.582031 376.433594 431.582031 373.398438 L 431.582031 354.328125 C 431.363281 351.292969 428.761719 348.691406 425.730469 348.691406 Z M 354.863281 398.753906 C 335.144531 398.753906 319.324219 382.714844 319.324219 363.210938 C 319.324219 343.492188 335.359375 327.671875 354.863281 327.671875 C 374.585938 327.671875 390.40625 343.707031 390.40625 363.210938 C 390.40625 382.933594 374.367188 398.753906 354.863281 398.753906 Z M 354.863281 398.753906 " fill-opacity="1" fill-rule="nonzero"/><path fill="#803bec" d="M 429.414062 344.792969 L 420.960938 344.792969 C 419.445312 338.289062 417.0625 332.003906 413.59375 326.585938 L 419.878906 320.304688 C 422.046875 318.136719 422.046875 314.667969 419.878906 312.285156 L 406.441406 298.847656 C 404.273438 296.679688 400.808594 296.679688 398.421875 298.847656 L 392.355469 304.917969 C 386.9375 301.449219 380.652344 298.847656 374.152344 297.113281 L 374.152344 288.445312 C 374.152344 285.414062 371.550781 282.8125 368.515625 282.8125 L 349.445312 282.8125 C 346.410156 282.8125 343.8125 285.410156 343.8125 288.445312 L 343.8125 296.898438 C 337.308594 298.414062 331.027344 300.796875 325.609375 304.265625 L 319.539062 298.199219 C 317.371094 296.03125 313.90625 296.03125 311.519531 298.199219 L 298.085938 311.632812 C 295.917969 313.800781 295.917969 317.269531 298.085938 319.652344 L 303.9375 325.503906 C 300.46875 330.921875 297.867188 337.207031 296.132812 343.707031 L 287.464844 343.707031 C 284.433594 343.707031 281.832031 346.308594 281.832031 349.34375 L 281.832031 368.414062 C 281.832031 371.449219 284.433594 374.046875 287.464844 374.046875 L 295.917969 374.046875 C 297.433594 380.550781 299.820312 386.835938 303.285156 392.253906 L 297 398.535156 C 294.835938 400.703125 294.835938 404.171875 297 406.554688 L 310.4375 419.992188 C 312.605469 422.160156 316.070312 422.160156 318.457031 419.992188 L 324.308594 414.140625 C 329.726562 417.609375 336.011719 420.207031 342.511719 421.941406 L 342.511719 430.609375 C 342.511719 433.644531 345.113281 436.246094 348.144531 436.246094 L 367.214844 436.246094 C 370.25 436.246094 372.851562 433.644531 372.851562 430.609375 L 372.851562 421.941406 C 379.351562 420.425781 385.636719 418.039062 391.054688 414.574219 L 397.339844 420.859375 C 399.507812 423.027344 402.972656 423.027344 405.359375 420.859375 L 418.792969 407.421875 C 420.960938 405.253906 420.960938 401.789062 418.792969 399.402344 L 412.941406 393.550781 C 416.410156 388.132812 419.011719 381.851562 420.746094 375.347656 L 429.414062 375.347656 C 432.449219 375.347656 435.046875 372.746094 435.046875 369.714844 L 435.046875 350.425781 C 434.832031 347.390625 432.449219 344.792969 429.414062 344.792969 Z M 358.332031 394.851562 C 338.609375 394.851562 322.789062 378.816406 322.789062 359.3125 C 322.789062 339.808594 338.828125 323.769531 358.332031 323.769531 C 378.050781 323.769531 393.871094 339.808594 393.871094 359.3125 C 393.871094 378.816406 378.050781 394.851562 358.332031 394.851562 Z M 358.332031 394.851562 " fill-opacity="1" fill-rule="nonzero"/><path fill="#803bec" d="M 1104.261719 237.300781 C 1089.089844 190.273438 1038.597656 164.484375 991.570312 179.871094 C 944.542969 195.042969 918.753906 245.535156 934.140625 292.5625 C 949.308594 339.589844 999.804688 365.378906 1046.832031 349.992188 C 1093.640625 334.824219 1119.429688 284.328125 1104.261719 237.300781 Z M 1019.09375 184.421875 C 1031.445312 184.421875 1041.195312 194.390625 1041.195312 206.527344 C 1041.195312 218.882812 1031.226562 228.632812 1019.09375 228.632812 C 1006.738281 228.632812 996.988281 218.664062 996.988281 206.527344 C 996.988281 194.175781 1006.738281 184.421875 1019.09375 184.421875 Z M 942.375 239.902344 C 946.058594 228.199219 958.628906 221.914062 970.332031 225.597656 C 982.035156 229.285156 988.320312 241.851562 984.632812 253.554688 C 980.949219 265.257812 968.378906 271.542969 956.679688 267.859375 C 944.976562 264.175781 938.691406 251.605469 942.375 239.902344 Z M 1002.621094 325.070312 C 995.46875 335.039062 981.601562 337.207031 971.632812 330.054688 C 961.664062 322.902344 959.496094 309.035156 966.648438 299.066406 C 973.796875 289.097656 987.667969 286.929688 997.636719 294.082031 C 1007.605469 301.449219 1009.988281 315.320312 1002.621094 325.070312 Z M 1066.335938 330.054688 C 1056.367188 337.207031 1042.496094 335.039062 1035.34375 325.070312 C 1028.195312 315.101562 1030.359375 301.230469 1040.328125 294.082031 C 1050.296875 286.929688 1064.167969 289.097656 1071.320312 299.066406 C 1078.472656 309.035156 1076.304688 322.902344 1066.335938 330.054688 Z M 1081.503906 267.859375 C 1069.804688 271.542969 1057.449219 265.257812 1053.550781 253.554688 C 1049.863281 241.851562 1056.148438 229.5 1067.851562 225.597656 C 1079.554688 221.914062 1091.90625 228.199219 1095.808594 239.902344 C 1099.492188 251.605469 1092.992188 264.175781 1081.503906 267.859375 Z M 1081.503906 267.859375 " fill-opacity="1" fill-rule="nonzero"/><path fill="#d4def9" d="M 1098.84375 231.882812 C 1083.671875 184.855469 1033.179688 159.066406 986.152344 174.453125 C 939.125 189.625 913.335938 240.117188 928.722656 287.144531 C 943.890625 334.171875 994.386719 359.960938 1041.414062 344.574219 C 1088.441406 329.40625 1114.011719 278.910156 1098.84375 231.882812 Z M 1013.675781 179.003906 C 1026.027344 179.003906 1035.777344 188.972656 1035.777344 201.109375 C 1035.777344 213.464844 1025.808594 223.214844 1013.675781 223.214844 C 1001.539062 223.214844 991.570312 213.246094 991.570312 201.109375 C 991.570312 188.972656 1001.539062 179.003906 1013.675781 179.003906 Z M 937.175781 234.699219 C 940.859375 223 953.425781 216.714844 965.128906 220.398438 C 976.832031 224.082031 983.117188 236.652344 979.433594 248.355469 C 975.75 260.054688 963.179688 266.339844 951.476562 262.65625 C 939.773438 258.757812 933.273438 246.1875 937.175781 234.699219 Z M 997.421875 319.871094 C 990.269531 329.839844 976.398438 332.003906 966.429688 324.855469 C 956.460938 317.703125 954.292969 303.832031 961.445312 293.863281 C 968.597656 283.894531 982.46875 281.726562 992.4375 288.878906 C 1002.40625 296.03125 1004.570312 309.902344 997.421875 319.871094 Z M 1061.132812 324.636719 C 1051.164062 331.789062 1037.296875 329.621094 1030.144531 319.652344 C 1022.992188 309.683594 1025.160156 295.8125 1035.128906 288.664062 C 1045.097656 281.511719 1058.96875 283.679688 1066.117188 293.648438 C 1073.269531 303.617188 1070.886719 317.484375 1061.132812 324.636719 Z M 1076.085938 262.65625 C 1064.386719 266.339844 1052.03125 260.054688 1048.132812 248.355469 C 1044.449219 236.652344 1050.730469 224.296875 1062.433594 220.398438 C 1074.136719 216.714844 1086.488281 223 1090.390625 234.699219 C 1094.074219 246.1875 1087.789062 258.757812 1076.085938 262.65625 Z M 1076.085938 262.65625 " fill-opacity="1" fill-rule="nonzero"/><path fill="#803bec" d="M 1042.714844 259.625 C 1042.714844 260.574219 1042.667969 261.523438 1042.574219 262.46875 C 1042.480469 263.417969 1042.339844 264.355469 1042.15625 265.289062 C 1041.96875 266.222656 1041.738281 267.144531 1041.464844 268.054688 C 1041.1875 268.964844 1040.867188 269.859375 1040.503906 270.734375 C 1040.140625 271.613281 1039.734375 272.472656 1039.285156 273.3125 C 1038.835938 274.152344 1038.347656 274.964844 1037.820312 275.757812 C 1037.292969 276.546875 1036.726562 277.308594 1036.121094 278.046875 C 1035.519531 278.78125 1034.878906 279.484375 1034.207031 280.15625 C 1033.535156 280.828125 1032.832031 281.46875 1032.097656 282.070312 C 1031.359375 282.675781 1030.597656 283.242188 1029.808594 283.769531 C 1029.015625 284.296875 1028.203125 284.785156 1027.363281 285.234375 C 1026.523438 285.683594 1025.664062 286.089844 1024.785156 286.453125 C 1023.90625 286.816406 1023.015625 287.136719 1022.105469 287.414062 C 1021.195312 287.6875 1020.273438 287.917969 1019.339844 288.105469 C 1018.40625 288.289062 1017.464844 288.429688 1016.519531 288.523438 C 1015.574219 288.617188 1014.625 288.664062 1013.675781 288.664062 C 1012.722656 288.664062 1011.773438 288.617188 1010.828125 288.523438 C 1009.882812 288.429688 1008.941406 288.289062 1008.007812 288.105469 C 1007.074219 287.917969 1006.15625 287.6875 1005.246094 287.414062 C 1004.335938 287.136719 1003.441406 286.816406 1002.5625 286.453125 C 1001.683594 286.089844 1000.824219 285.683594 999.984375 285.234375 C 999.144531 284.785156 998.332031 284.296875 997.539062 283.769531 C 996.75 283.242188 995.988281 282.675781 995.25 282.070312 C 994.515625 281.46875 993.8125 280.828125 993.140625 280.15625 C 992.46875 279.484375 991.828125 278.78125 991.226562 278.046875 C 990.621094 277.3125 990.058594 276.546875 989.527344 275.757812 C 989 274.964844 988.511719 274.152344 988.0625 273.3125 C 987.613281 272.472656 987.207031 271.613281 986.84375 270.734375 C 986.480469 269.859375 986.160156 268.964844 985.886719 268.054688 C 985.609375 267.144531 985.378906 266.222656 985.191406 265.289062 C 985.007812 264.355469 984.867188 263.417969 984.773438 262.46875 C 984.679688 261.523438 984.632812 260.574219 984.632812 259.625 C 984.632812 258.671875 984.679688 257.722656 984.773438 256.777344 C 984.867188 255.832031 985.007812 254.890625 985.191406 253.957031 C 985.378906 253.023438 985.609375 252.105469 985.882812 251.195312 C 986.160156 250.285156 986.480469 249.390625 986.84375 248.511719 C 987.207031 247.632812 987.613281 246.773438 988.0625 245.933594 C 988.511719 245.09375 989 244.28125 989.527344 243.488281 C 990.058594 242.699219 990.621094 241.9375 991.226562 241.199219 C 991.828125 240.464844 992.46875 239.761719 993.140625 239.089844 C 993.8125 238.417969 994.515625 237.777344 995.25 237.175781 C 995.988281 236.570312 996.75 236.007812 997.539062 235.476562 C 998.332031 234.949219 999.144531 234.460938 999.984375 234.011719 C 1000.824219 233.5625 1001.683594 233.15625 1002.5625 232.792969 C 1003.441406 232.429688 1004.335938 232.109375 1005.246094 231.835938 C 1006.15625 231.558594 1007.074219 231.328125 1008.007812 231.140625 C 1008.941406 230.957031 1009.882812 230.816406 1010.828125 230.722656 C 1011.773438 230.628906 1012.722656 230.582031 1013.675781 230.582031 C 1014.625 230.582031 1015.574219 230.628906 1016.519531 230.722656 C 1017.46875 230.816406 1018.40625 230.957031 1019.339844 231.140625 C 1020.273438 231.328125 1021.195312 231.558594 1022.105469 231.832031 C 1023.015625 232.109375 1023.90625 232.429688 1024.785156 232.792969 C 1025.664062 233.15625 1026.523438 233.5625 1027.363281 234.011719 C 1028.203125 234.460938 1029.015625 234.949219 1029.808594 235.476562 C 1030.597656 236.007812 1031.363281 236.570312 1032.097656 237.175781 C 1032.832031 237.777344 1033.535156 238.417969 1034.207031 239.089844 C 1034.878906 239.761719 1035.519531 240.464844 1036.121094 241.199219 C 1036.726562 241.9375 1037.292969 242.699219 1037.820312 243.488281 C 1038.347656 244.28125 1038.835938 245.09375 1039.285156 245.933594 C 1039.734375 246.773438 1040.140625 247.632812 1040.503906 248.511719 C 1040.867188 249.390625 1041.1875 250.285156 1041.464844 251.195312 C 1041.738281 252.105469 1041.96875 253.023438 1042.15625 253.957031 C 1042.339844 254.890625 1042.480469 255.832031 1042.574219 256.777344 C 1042.667969 257.722656 1042.714844 258.671875 1042.714844 259.625 Z M 1042.714844 259.625 " fill-opacity="1" fill-rule="nonzero"/><path fill="#d9d9d9" d="M 1035.777344 259.625 C 1035.777344 260.347656 1035.742188 261.070312 1035.671875 261.789062 C 1035.601562 262.511719 1035.496094 263.226562 1035.355469 263.9375 C 1035.210938 264.644531 1035.035156 265.347656 1034.828125 266.039062 C 1034.617188 266.734375 1034.375 267.414062 1034.097656 268.082031 C 1033.820312 268.75 1033.511719 269.40625 1033.167969 270.042969 C 1032.828125 270.683594 1032.457031 271.300781 1032.054688 271.902344 C 1031.652344 272.507812 1031.21875 273.085938 1030.761719 273.644531 C 1030.300781 274.207031 1029.816406 274.742188 1029.304688 275.253906 C 1028.792969 275.765625 1028.257812 276.25 1027.695312 276.710938 C 1027.136719 277.167969 1026.554688 277.601562 1025.953125 278.003906 C 1025.351562 278.40625 1024.734375 278.777344 1024.09375 279.117188 C 1023.457031 279.460938 1022.800781 279.769531 1022.132812 280.046875 C 1021.464844 280.324219 1020.785156 280.566406 1020.089844 280.777344 C 1019.398438 280.984375 1018.695312 281.160156 1017.984375 281.304688 C 1017.277344 281.445312 1016.5625 281.550781 1015.839844 281.621094 C 1015.121094 281.691406 1014.398438 281.726562 1013.675781 281.726562 C 1012.949219 281.726562 1012.226562 281.691406 1011.507812 281.621094 C 1010.785156 281.550781 1010.070312 281.445312 1009.363281 281.304688 C 1008.652344 281.160156 1007.949219 280.984375 1007.257812 280.777344 C 1006.566406 280.566406 1005.882812 280.324219 1005.214844 280.046875 C 1004.546875 279.769531 1003.890625 279.460938 1003.253906 279.117188 C 1002.617188 278.777344 1001.996094 278.40625 1001.394531 278.003906 C 1000.792969 277.601562 1000.210938 277.167969 999.652344 276.710938 C 999.089844 276.25 998.554688 275.765625 998.042969 275.253906 C 997.53125 274.742188 997.046875 274.207031 996.585938 273.644531 C 996.128906 273.085938 995.695312 272.507812 995.292969 271.902344 C 994.890625 271.300781 994.519531 270.683594 994.179688 270.042969 C 993.839844 269.40625 993.527344 268.75 993.25 268.082031 C 992.976562 267.414062 992.730469 266.734375 992.519531 266.039062 C 992.3125 265.347656 992.136719 264.644531 991.992188 263.9375 C 991.851562 263.226562 991.746094 262.511719 991.675781 261.789062 C 991.605469 261.070312 991.570312 260.347656 991.570312 259.625 C 991.570312 258.898438 991.605469 258.175781 991.675781 257.457031 C 991.746094 256.734375 991.851562 256.019531 991.992188 255.3125 C 992.136719 254.601562 992.3125 253.898438 992.519531 253.207031 C 992.730469 252.515625 992.976562 251.832031 993.25 251.164062 C 993.527344 250.496094 993.839844 249.839844 994.179688 249.203125 C 994.519531 248.566406 994.890625 247.945312 995.292969 247.34375 C 995.695312 246.742188 996.128906 246.160156 996.585938 245.601562 C 997.046875 245.039062 997.53125 244.503906 998.042969 243.992188 C 998.554688 243.480469 999.089844 242.996094 999.652344 242.535156 C 1000.210938 242.078125 1000.792969 241.644531 1001.394531 241.242188 C 1001.996094 240.839844 1002.617188 240.46875 1003.253906 240.128906 C 1003.890625 239.789062 1004.546875 239.476562 1005.214844 239.199219 C 1005.882812 238.925781 1006.566406 238.679688 1007.257812 238.46875 C 1007.949219 238.261719 1008.652344 238.085938 1009.363281 237.941406 C 1010.070312 237.800781 1010.785156 237.695312 1011.507812 237.625 C 1012.226562 237.554688 1012.949219 237.519531 1013.675781 237.519531 C 1014.398438 237.519531 1015.121094 237.554688 1015.839844 237.625 C 1016.5625 237.695312 1017.277344 237.800781 1017.984375 237.941406 C 1018.695312 238.085938 1019.398438 238.261719 1020.089844 238.46875 C 1020.785156 238.679688 1021.464844 238.925781 1022.132812 239.199219 C 1022.800781 239.476562 1023.457031 239.789062 1024.09375 240.128906 C 1024.734375 240.46875 1025.351562 240.839844 1025.953125 241.242188 C 1026.554688 241.644531 1027.136719 242.078125 1027.695312 242.535156 C 1028.257812 242.996094 1028.792969 243.480469 1029.304688 243.992188 C 1029.816406 244.503906 1030.300781 245.039062 1030.761719 245.601562 C 1031.21875 246.160156 1031.652344 246.742188 1032.054688 247.34375 C 1032.457031 247.945312 1032.828125 248.566406 1033.167969 249.203125 C 1033.511719 249.839844 1033.820312 250.496094 1034.097656 251.164062 C 1034.375 251.832031 1034.617188 252.515625 1034.828125 253.207031 C 1035.035156 253.898438 1035.210938 254.601562 1035.355469 255.3125 C 1035.496094 256.019531 1035.601562 256.734375 1035.671875 257.457031 C 1035.742188 258.175781 1035.777344 258.898438 1035.777344 259.625 Z M 1035.777344 259.625 " fill-opacity="1" fill-rule="nonzero"/><path fill="#803bec" d="M 635.726562 655.992188 L 740.398438 649.492188 L 770.953125 494.324219 L 666.28125 500.609375 Z M 635.726562 655.992188 " fill-opacity="1" fill-rule="nonzero"/><path fill="#803bec" d="M 562.910156 669.863281 L 814.515625 654.476562 L 814.296875 650.140625 C 814.082031 644.941406 809.53125 641.257812 804.546875 641.472656 L 571.578125 655.777344 C 566.375 655.992188 562.691406 660.542969 562.910156 665.527344 Z M 562.910156 669.863281 " fill-opacity="1" fill-rule="nonzero"/><path fill="#803bec" d="M 350.746094 215.847656 L 424.210938 580.578125 C 425.945312 589.027344 433.964844 595.746094 442.417969 595.746094 L 1005.65625 563.023438 C 1014.105469 563.023438 1019.308594 556.304688 1017.792969 547.851562 L 944.324219 218.449219 C 942.59375 209.996094 934.574219 203.277344 926.121094 203.277344 L 362.664062 200.460938 C 354.429688 200.675781 349.011719 207.394531 350.746094 215.847656 Z M 350.746094 215.847656 " fill-opacity="1" fill-rule="nonzero"/><path fill="#803bec" d="M 350.746094 215.847656 L 420.3125 561.503906 L 1013.890625 529 L 944.324219 218.664062 C 942.59375 210.210938 934.574219 203.496094 926.121094 203.496094 L 362.664062 200.675781 C 354.429688 200.675781 349.011719 207.394531 350.746094 215.847656 Z M 350.746094 215.847656 " fill-opacity="1" fill-rule="nonzero"/><path fill="#d4def9" d="M 363.964844 202.628906 L 437.433594 567.355469 C 439.164062 575.808594 447.183594 582.527344 455.636719 582.527344 L 1018.875 549.804688 C 1027.328125 549.804688 1032.527344 543.085938 1031.011719 534.632812 L 957.546875 205.226562 C 955.8125 196.777344 947.792969 190.058594 939.339844 190.058594 L 375.886719 187.242188 C 367.648438 187.457031 362.230469 194.390625 363.964844 202.628906 Z M 363.964844 202.628906 " fill-opacity="1" fill-rule="nonzero"/><path fill="#d9d9d9" d="M 363.964844 202.628906 L 433.53125 548.503906 L 1027.109375 515.996094 L 957.546875 205.660156 C 955.8125 197.210938 947.792969 190.492188 939.339844 190.492188 L 375.886719 187.675781 C 367.648438 187.457031 362.230469 194.390625 363.964844 202.628906 Z M 363.964844 202.628906 " fill-opacity="1" fill-rule="nonzero"/><path fill="#803bec" d="M 378.484375 202.84375 L 444.800781 532.464844 L 1009.339844 499.957031 L 942.808594 205.660156 Z M 378.484375 202.84375 " fill-opacity="1" fill-rule="nonzero"/><path stroke-linecap="butt" transform="matrix(2.167138, 0, 0, 2.167138, 188.64442, -128.511274)" fill-opacity="1" fill="#d9d9d9" fill-rule="nonzero" stroke-linejoin="miter" d="M 375.500652 277.900846 L 136.40005 290.90042 C 133.800856 290.999557 131.600013 289.299807 131.100723 286.700613 L 97.199448 115.799109 C 96.599218 112.599685 99.099275 109.499399 102.399638 109.600338 L 343.100854 115.799109 C 345.499971 115.900049 347.500737 117.599799 348.000028 119.899779 L 380.19975 271.599333 C 380.899117 274.800559 378.599137 277.700769 375.500652 277.900846 Z M 375.500652 277.900846 " stroke="#162667" stroke-width="1.477" stroke-opacity="1" stroke-miterlimit="10"/><path fill="#d4def9" d="M 1002.1875 459.214844 L 484.023438 485.4375 L 464.519531 386.835938 L 983.550781 370.796875 Z M 1002.1875 459.214844 " fill-opacity="1" fill-rule="nonzero"/><path fill="#803bec" d="M 980.734375 357.792969 L 615.789062 367.761719 L 567.027344 126.777344 L 933.488281 135.011719 Z M 980.734375 357.792969 " fill-opacity="1" fill-rule="nonzero"/><path fill="#d9d9d9" d="M 979.867188 389.21875 L 622.722656 401.570312 L 621.636719 397.238281 L 979 385.101562 Z M 979.867188 389.21875 " fill-opacity="1" fill-rule="nonzero"/><path fill="#d9d9d9" d="M 871.078125 177.488281 L 640.710938 174.453125 L 667.582031 306.433594 L 897.515625 302.964844 Z M 862.625 189.40625 L 865.441406 203.0625 L 850.921875 203.0625 L 848.105469 189.40625 Z M 832.71875 189.191406 L 835.535156 203.0625 L 821.015625 202.84375 L 818.199219 188.972656 Z M 802.378906 188.757812 L 805.195312 202.628906 L 790.457031 202.410156 L 787.640625 188.542969 Z M 771.605469 188.542969 L 774.421875 202.410156 L 759.46875 202.195312 L 756.652344 188.109375 Z M 664.113281 201.761719 L 661.296875 187.457031 L 676.902344 187.675781 L 679.71875 201.976562 Z M 682.96875 293.429688 L 679.933594 279.128906 L 695.539062 278.910156 L 698.570312 293.214844 Z M 696.40625 201.976562 L 693.585938 187.675781 L 708.972656 187.890625 L 711.792969 201.976562 Z M 715.042969 292.996094 L 712.007812 278.695312 L 724.792969 278.476562 L 727.613281 292.78125 Z M 728.046875 202.195312 L 725.226562 188.109375 L 740.398438 188.324219 L 743.214844 202.410156 Z M 746.683594 292.5625 L 743.867188 278.476562 L 759.035156 278.261719 L 761.851562 292.347656 Z M 776.804688 292.128906 L 773.988281 278.042969 L 788.941406 277.828125 L 791.757812 291.914062 Z M 807.578125 291.914062 L 804.761719 277.828125 L 819.5 277.609375 L 822.316406 291.480469 Z M 836.835938 291.480469 L 834.019531 277.609375 L 848.539062 277.394531 L 851.355469 291.261719 Z M 863.925781 277.394531 L 878.226562 277.175781 L 881.046875 290.828125 L 866.742188 291.046875 Z M 863.925781 277.394531 " fill-opacity="1" fill-rule="nonzero"/><path fill="#ffffff" d="M 793.492188 239.035156 L 758.386719 222.347656 C 757.300781 221.914062 756 222.78125 756.21875 223.867188 L 763.152344 257.023438 C 763.371094 257.890625 764.453125 258.324219 765.320312 257.890625 L 793.710938 241.203125 C 794.359375 240.984375 794.359375 239.683594 793.492188 239.035156 Z M 793.492188 239.035156 " fill-opacity="1" fill-rule="nonzero"/><path fill="#803bec" d="M 545.355469 146.066406 L 455.203125 144.332031 L 454.335938 139.347656 L 544.273438 141.296875 Z M 545.355469 146.066406 " fill-opacity="1" fill-rule="nonzero"/><path fill="#ffffff" d="M 548.824219 163.1875 L 458.667969 161.886719 L 457.804688 156.902344 L 547.738281 158.199219 Z M 548.824219 163.1875 " fill-opacity="1" fill-rule="nonzero"/><path fill="#803bec" d="M 552.289062 180.304688 L 462.136719 179.222656 L 461.269531 174.238281 L 551.207031 175.320312 Z M 552.289062 180.304688 " fill-opacity="1" fill-rule="nonzero"/><path fill="#ffffff" d="M 444.582031 144.113281 L 434.613281 144.113281 L 433.746094 138.914062 L 443.5 139.128906 Z M 444.582031 144.113281 " fill-opacity="1" fill-rule="nonzero"/><path fill="#ffffff" d="M 448.050781 161.667969 L 438.082031 161.453125 L 437.214844 156.46875 L 446.96875 156.683594 Z M 448.050781 161.667969 " fill-opacity="1" fill-rule="nonzero"/><path fill="#ffffff" d="M 451.519531 179.003906 L 441.550781 179.003906 L 440.683594 174.019531 L 450.433594 174.019531 Z M 451.519531 179.003906 " fill-opacity="1" fill-rule="nonzero"/><path fill="#ffffff" d="M 566.808594 252.472656 L 476.875 252.6875 L 475.789062 247.703125 L 565.726562 247.488281 Z M 566.808594 252.472656 " fill-opacity="1" fill-rule="nonzero"/><path fill="#d4def9" d="M 570.277344 269.59375 L 480.339844 270.242188 L 479.472656 265.257812 L 569.195312 264.609375 Z M 570.277344 269.59375 " fill-opacity="1" fill-rule="nonzero"/><path fill="#803bec" d="M 573.746094 286.710938 L 483.808594 287.796875 L 482.941406 282.59375 L 572.660156 281.945312 Z M 573.746094 286.710938 " fill-opacity="1" fill-rule="nonzero"/><path fill="#ffffff" d="M 466.253906 252.6875 L 456.285156 252.6875 L 455.203125 247.703125 L 465.171875 247.703125 Z M 466.253906 252.6875 " fill-opacity="1" fill-rule="nonzero"/><path fill="#ffffff" d="M 469.722656 270.242188 L 459.753906 270.242188 L 458.886719 265.257812 L 468.640625 265.257812 Z M 469.722656 270.242188 " fill-opacity="1" fill-rule="nonzero"/><path fill="#ffffff" d="M 473.191406 287.796875 L 463.222656 288.011719 L 462.355469 282.8125 L 472.105469 282.8125 Z M 473.191406 287.796875 " fill-opacity="1" fill-rule="nonzero"/><path fill="#ffffff" d="M 523.25 196.34375 L 465.605469 195.910156 L 464.519531 190.925781 L 522.167969 191.359375 Z M 523.25 196.34375 " fill-opacity="1" fill-rule="nonzero"/><path fill="#d4def9" d="M 526.71875 213.679688 L 469.070312 213.246094 L 467.988281 208.261719 L 525.632812 208.695312 Z M 526.71875 213.679688 " fill-opacity="1" fill-rule="nonzero"/><path fill="#803bec" d="M 530.183594 230.800781 L 472.539062 230.800781 L 471.457031 225.816406 L 529.101562 225.816406 Z M 530.183594 230.800781 " fill-opacity="1" fill-rule="nonzero"/><path fill="#803bec" d="M 708.972656 430.609375 L 630.308594 433.859375 L 627.921875 422.375 L 706.589844 419.339844 Z M 708.972656 430.609375 " fill-opacity="1" fill-rule="nonzero"/><path fill="#ffffff" d="M 781.355469 448.164062 L 705.289062 451.632812 L 702.90625 440.363281 L 779.191406 436.894531 Z M 781.355469 448.164062 " fill-opacity="1" fill-rule="nonzero"/><path fill="#ffffff" d="M 881.695312 413.921875 L 831.199219 416.308594 L 829.683594 408.722656 L 880.179688 406.554688 Z M 881.695312 413.921875 " fill-opacity="1" fill-rule="nonzero"/><path fill="#803bec" d="M 821.015625 434.726562 L 778.539062 436.460938 L 776.371094 425.410156 L 818.632812 423.890625 Z M 821.015625 434.726562 " fill-opacity="1" fill-rule="nonzero"/><path fill="#d9d9d9" d="M 937.175781 431.042969 L 896.648438 432.777344 L 895.347656 426.710938 L 935.875 424.976562 Z M 937.175781 431.042969 " fill-opacity="1" fill-rule="nonzero"/><path fill="#803bec" d="M 586.3125 418.039062 L 503.097656 421.074219 L 502.011719 415.007812 L 585.230469 411.972656 Z M 586.3125 418.039062 " fill-opacity="1" fill-rule="nonzero"/><path fill="#d9d9d9" d="M 496.160156 421.292969 L 489.875 421.726562 L 488.578125 415.441406 L 494.859375 415.222656 Z M 496.160156 421.292969 " fill-opacity="1" fill-rule="nonzero"/><path fill="#d9d9d9" d="M 589.347656 432.34375 L 506.128906 435.8125 L 504.828125 429.742188 L 588.046875 426.492188 Z M 589.347656 432.34375 " fill-opacity="1" fill-rule="nonzero"/><path fill="#d9d9d9" d="M 498.980469 436.027344 L 492.910156 436.460938 L 491.609375 430.175781 L 497.679688 429.960938 Z M 498.980469 436.027344 " fill-opacity="1" fill-rule="nonzero"/><path fill="#803bec" d="M 595.199219 461.382812 L 511.980469 465.285156 L 510.679688 459 L 593.898438 455.316406 Z M 595.199219 461.382812 " fill-opacity="1" fill-rule="nonzero"/><path fill="#d9d9d9" d="M 504.828125 465.5 L 498.761719 465.933594 L 497.460938 459.648438 L 503.53125 459.433594 Z M 504.828125 465.5 " fill-opacity="1" fill-rule="nonzero"/><path fill="#d9d9d9" d="M 583.496094 403.519531 L 500.277344 406.554688 L 498.980469 400.269531 L 582.195312 397.453125 Z M 583.496094 403.519531 " fill-opacity="1" fill-rule="nonzero"/><path fill="#d9d9d9" d="M 493.128906 406.773438 L 487.058594 406.988281 L 485.757812 400.703125 L 491.828125 400.488281 Z M 493.128906 406.773438 " fill-opacity="1" fill-rule="nonzero"/><path fill="#d9d9d9" d="M 592.164062 446.863281 L 508.949219 450.546875 L 507.863281 444.480469 L 591.082031 440.796875 Z M 592.164062 446.863281 " fill-opacity="1" fill-rule="nonzero"/><path fill="#d9d9d9" d="M 502.011719 450.765625 L 495.726562 451.199219 L 494.425781 444.914062 L 500.710938 444.695312 Z M 502.011719 450.765625 " fill-opacity="1" fill-rule="nonzero"/><path fill="#803bec" d="M 606.035156 400.054688 C 606.46875 402.4375 604.734375 404.386719 602.132812 404.386719 C 599.535156 404.386719 597.148438 402.652344 596.5 400.269531 C 596.066406 397.886719 597.800781 395.9375 600.402344 395.9375 C 603.21875 395.9375 605.601562 397.886719 606.035156 400.054688 Z M 606.035156 400.054688 " fill-opacity="1" fill-rule="nonzero"/><path fill="#803bec" d="M 609.285156 415.65625 C 609.71875 418.042969 607.984375 419.992188 605.386719 419.992188 C 602.785156 419.992188 600.402344 418.257812 599.75 415.875 C 599.316406 413.488281 601.050781 411.539062 603.652344 411.539062 C 606.253906 411.324219 608.636719 413.273438 609.285156 415.65625 Z M 609.285156 415.65625 " fill-opacity="1" fill-rule="nonzero"/><path fill="#803bec" d="M 612.320312 431.042969 C 612.753906 433.425781 611.019531 435.378906 608.417969 435.378906 C 605.820312 435.378906 603.433594 433.644531 602.785156 431.261719 C 602.351562 428.875 604.085938 426.925781 606.683594 426.925781 C 609.285156 426.925781 611.886719 428.660156 612.320312 431.042969 Z M 612.320312 431.042969 " fill-opacity="1" fill-rule="nonzero"/><path fill="#803bec" d="M 615.355469 446.429688 C 615.789062 448.8125 614.054688 450.765625 611.453125 450.980469 C 608.851562 451.199219 606.46875 449.246094 605.820312 446.863281 C 605.386719 444.480469 607.117188 442.53125 609.71875 442.3125 C 612.535156 442.3125 614.921875 444.046875 615.355469 446.429688 Z M 615.355469 446.429688 " fill-opacity="1" fill-rule="nonzero"/><path fill="#803bec" d="M 618.605469 462.035156 C 619.039062 464.417969 617.304688 466.367188 614.703125 466.585938 C 612.101562 466.800781 609.71875 464.851562 609.070312 462.46875 C 608.636719 460.082031 610.371094 458.132812 612.96875 457.917969 C 615.570312 457.699219 618.171875 459.648438 618.605469 462.035156 Z M 618.605469 462.035156 " fill-opacity="1" fill-rule="nonzero"/><path fill="#ffffff" d="M 990.484375 590.980469 L 920.921875 599.429688 L 920.269531 549.804688 C 920.269531 549.804688 887.546875 558.90625 884.296875 537.667969 C 881.046875 516.429688 884.511719 506.027344 884.511719 506.027344 C 884.511719 506.027344 876.277344 506.675781 873.460938 504.726562 C 871.292969 503.425781 881.261719 481.105469 886.894531 464.632812 C 889.0625 458.78125 890.582031 453.582031 890.796875 450.332031 C 890.796875 450.332031 905.316406 427.359375 930.671875 430.175781 C 938.472656 431.042969 947.578125 434.511719 957.328125 441.878906 C 998.71875 473.304688 984.417969 525.964844 982.46875 541.566406 C 979.867188 557.171875 990.484375 590.980469 990.484375 590.980469 Z M 990.484375 590.980469 " fill-opacity="1" fill-rule="nonzero"/><path fill="#803bec" d="M 910.300781 588.8125 L 920.703125 571.039062 L 985.285156 564.972656 C 985.285156 564.972656 1000.453125 587.945312 997.421875 587.945312 C 994.601562 587.945312 910.300781 588.8125 910.300781 588.8125 Z M 910.300781 588.8125 " fill-opacity="1" fill-rule="nonzero"/><path fill="#803bec" d="M 933.273438 493.023438 C 933.273438 493.023438 938.90625 465.285156 926.339844 460.300781 C 913.769531 455.097656 899.898438 458.132812 890.582031 450.332031 C 877.144531 439.0625 878.878906 421.292969 882.5625 413.273438 C 887.546875 402.222656 899.03125 395.71875 910.734375 394.203125 C 920.488281 392.902344 930.023438 395.503906 938.90625 399.1875 C 942.160156 400.488281 945.191406 402.4375 948.441406 403.953125 C 951.910156 405.472656 955.59375 406.339844 959.0625 407.421875 C 977.484375 413.921875 998.71875 426.058594 1000.019531 447.949219 C 1001.320312 471.136719 998.9375 520.328125 981.167969 546.117188 C 981.167969 546.117188 970.765625 551.320312 965.128906 534.199219 C 959.496094 517.078125 970.980469 480.886719 957.761719 474.167969 C 944.757812 467.234375 955.160156 506.460938 933.273438 493.023438 Z M 933.273438 493.023438 " fill-opacity="1" fill-rule="nonzero"/><path fill="#803bec" d="M 1058.316406 824.8125 L 943.457031 825.246094 L 925.90625 825.246094 L 846.804688 825.679688 C 863.492188 798.808594 863.492188 761.75 859.589844 727.726562 C 859.589844 727.292969 859.375 726.640625 859.375 726.207031 C 855.257812 691.96875 847.238281 660.761719 848.753906 646.242188 C 851.136719 622.835938 871.507812 606.148438 890.148438 595.746094 C 898.382812 591.195312 906.183594 587.726562 912.035156 585.5625 C 916.152344 583.828125 919.402344 582.960938 920.703125 582.527344 C 921.136719 582.308594 921.355469 582.308594 921.355469 582.308594 L 986.800781 577.324219 L 987.019531 577.324219 C 989.617188 577.976562 992.21875 578.625 994.601562 579.492188 C 1037.078125 592.929688 1055.933594 617.851562 1064.601562 650.140625 C 1065.902344 654.691406 1066.984375 659.675781 1067.636719 664.445312 C 1071.96875 689.367188 1071.96875 717.757812 1072.835938 748.097656 C 1073.488281 773.019531 1067.203125 799.675781 1058.316406 824.8125 Z M 1058.316406 824.8125 " fill-opacity="1" fill-rule="nonzero"/><path fill="#ffffff" d="M 612.535156 709.304688 C 611.667969 709.304688 574.179688 711.039062 563.992188 715.371094 C 553.808594 719.707031 544.488281 730.324219 548.390625 730.757812 C 552.289062 731.410156 573.3125 737.910156 584.582031 735.960938 C 595.851562 734.007812 605.167969 739.425781 605.820312 739.210938 C 606.46875 738.996094 613.402344 708.871094 613.402344 708.871094 Z M 612.535156 709.304688 " fill-opacity="1" fill-rule="nonzero"/><path fill="#803bec" d="M 900.117188 592.277344 L 861.757812 725.339844 C 861.757812 725.339844 782.222656 762.398438 755.132812 769.335938 C 746.464844 771.5 729.5625 770.632812 710.058594 768.25 C 668.230469 763.050781 614.703125 750.261719 606.683594 744.628906 C 599.75 739.425781 600.183594 727.074219 604.085938 717.324219 C 606.46875 710.820312 610.371094 705.621094 614.488281 704.320312 C 624.457031 701.285156 728.046875 709.738281 733.464844 708.871094 C 738.878906 708.003906 787.640625 669.429688 815.378906 640.824219 C 843.121094 612.433594 900.117188 592.277344 900.117188 592.277344 Z M 900.117188 592.277344 " fill-opacity="1" fill-rule="nonzero"/><path fill="#803bec" d="M 1122.03125 668.34375 C 1122.03125 668.34375 1115.097656 668.34375 1115.097656 668.128906 C 1115.097656 668.128906 1112.496094 667.046875 1109.894531 665.960938 L 1075.222656 824.597656 L 1058.316406 824.597656 L 943.457031 825.03125 L 925.90625 825.03125 L 962.097656 658.59375 C 963.179688 653.609375 967.730469 649.925781 972.714844 649.925781 L 1099.492188 649.925781 C 1102.527344 649.925781 1105.34375 651.226562 1107.292969 653.175781 L 1121.597656 667.480469 C 1121.597656 668.128906 1121.8125 668.128906 1122.03125 668.34375 Z M 1122.03125 668.34375 " fill-opacity="1" fill-rule="nonzero"/><path fill="#803bec" d="M 1124.632812 678.097656 L 1092.773438 824.597656 L 1058.316406 824.597656 L 943.457031 825.03125 L 976.617188 673.113281 C 977.699219 668.128906 982.25 664.445312 987.234375 664.445312 L 1114.011719 664.445312 C 1117.046875 664.445312 1119.648438 665.527344 1121.597656 667.480469 C 1121.8125 667.695312 1122.03125 667.695312 1122.03125 667.910156 C 1124.199219 670.945312 1125.5 674.414062 1124.632812 678.097656 Z M 1124.632812 678.097656 " fill-opacity="1" fill-rule="nonzero"/></svg>