<svg xmlns="http://www.w3.org/2000/svg" xmlns:xlink="http://www.w3.org/1999/xlink" width="1920" zoomAndPan="magnify" viewBox="0 0 1440 809.999993" height="1080" preserveAspectRatio="xMidYMid meet" version="1.0"><defs><clipPath id="76258895fb"><path d="M 297 569 L 1128.882812 569 L 1128.882812 748 L 297 748 Z M 297 569 " clip-rule="nonzero"/></clipPath><clipPath id="66f41d2c60"><path d="M 300 551 L 1128.882812 551 L 1128.882812 729 L 300 729 Z M 300 551 " clip-rule="nonzero"/></clipPath><clipPath id="180f552c34"><path d="M 813 539 L 1017 539 L 1017 761.902344 L 813 761.902344 Z M 813 539 " clip-rule="nonzero"/></clipPath><clipPath id="ed2bc8708d"><path d="M 884 604 L 1061 604 L 1061 761.902344 L 884 761.902344 Z M 884 604 " clip-rule="nonzero"/></clipPath><clipPath id="d9e5024f82"><path d="M 900 617 L 1064 617 L 1064 761.902344 L 900 761.902344 Z M 900 617 " clip-rule="nonzero"/></clipPath></defs><g clip-path="url(#76258895fb)"><path fill="#803bec" d="M 1100.019531 655.679688 L 985.046875 569.691406 L 337.238281 625.914062 L 300.46875 610.742188 L 297.941406 629.222656 L 436.644531 747.304688 L 1125.890625 675.132812 L 1128.617188 656.457031 Z M 1100.019531 655.679688 " fill-opacity="1" fill-rule="nonzero"/></g><path fill="#d9d9d9" d="M 303.777344 611.714844 L 987.1875 552.378906 L 1125.113281 655.484375 L 439.757812 727.269531 Z M 303.777344 611.714844 " fill-opacity="1" fill-rule="nonzero"/><g clip-path="url(#66f41d2c60)"><path fill="#803bec" d="M 986.796875 553.742188 L 1121.613281 654.511719 L 440.34375 725.90625 L 307.277344 612.6875 L 986.796875 553.742188 M 987.574219 551.019531 L 300.46875 610.742188 L 439.371094 728.824219 L 1128.617188 656.457031 Z M 987.574219 551.019531 " fill-opacity="1" fill-rule="nonzero"/></g><path fill="#803bec" d="M 867.742188 650.621094 L 825.914062 619.300781 L 622.039062 637.003906 L 585.855469 635.058594 L 583.910156 640.308594 L 632.738281 681.941406 L 875.523438 656.457031 L 877.664062 651.203125 Z M 867.742188 650.621094 " fill-opacity="1" fill-rule="nonzero"/><path fill="#d4def9" d="M 585.855469 635.058594 L 634.878906 676.496094 L 877.664062 651.203125 L 827.859375 614.046875 Z M 585.855469 635.058594 " fill-opacity="1" fill-rule="nonzero"/><path fill="#d4def9" d="M 615.816406 475.925781 C 578.660156 477.09375 541.113281 487.015625 508.234375 502.382812 C 460.378906 524.5625 406.6875 561.71875 352.023438 537.59375 C 280.433594 505.886719 351.050781 407.839844 340.738281 354.925781 C 332.957031 314.460938 311.363281 278.472656 298.328125 239.757812 C 278.875 182.175781 291.328125 123.621094 350.078125 96.1875 C 384.511719 80.042969 424.390625 79.652344 461.9375 85.488281 C 529.050781 95.996094 592.277344 128.289062 659.78125 102.609375 C 705.886719 85.101562 759.578125 57.476562 801.402344 99.300781 C 845.367188 143.65625 842.0625 220.886719 846.925781 278.472656 C 851.789062 330.21875 873.578125 378.65625 886.027344 428.460938 C 901.203125 489.15625 844.007812 538.957031 785.644531 527.671875 C 761.132812 523.003906 738.761719 510.75 716.390625 499.660156 C 684.679688 484.292969 651.804688 474.953125 615.816406 475.925781 Z M 615.816406 475.925781 " fill-opacity="1" fill-rule="nonzero"/><path fill="#d4def9" d="M 560.957031 63.117188 L 600.835938 101.246094 C 602.003906 102.414062 603.949219 101.636719 603.949219 99.886719 L 603.949219 23.433594 C 603.949219 21.679688 602.003906 20.902344 600.835938 22.070312 L 560.957031 60.199219 C 560.175781 60.976562 560.175781 62.339844 560.957031 63.117188 Z M 560.957031 63.117188 " fill-opacity="1" fill-rule="nonzero"/><path fill="#d4def9" d="M 579.632812 67.980469 L 557.453125 81.792969 C 556.480469 82.378906 555.3125 81.792969 555.3125 80.625 L 555.3125 42.886719 C 555.3125 41.71875 556.480469 41.136719 557.453125 41.71875 L 579.632812 55.921875 C 580.019531 56.113281 580.214844 56.699219 580.214844 57.085938 L 580.214844 66.8125 C 580.410156 67.203125 580.019531 67.785156 579.632812 67.980469 Z M 579.632812 67.980469 " fill-opacity="1" fill-rule="nonzero"/><path fill="#d4def9" d="M 614.84375 92.105469 C 613.871094 92.105469 613.089844 91.324219 613.089844 90.351562 C 613.089844 89.378906 613.871094 88.601562 614.84375 88.601562 C 629.820312 88.601562 641.882812 76.542969 641.882812 61.5625 C 641.882812 46.582031 629.820312 34.519531 614.84375 34.519531 C 613.871094 34.519531 613.089844 33.742188 613.089844 32.769531 C 613.089844 31.796875 613.871094 31.019531 614.84375 31.019531 C 631.574219 31.019531 645.191406 44.636719 645.191406 61.367188 C 645.382812 78.488281 631.765625 92.105469 614.84375 92.105469 Z M 614.84375 92.105469 " fill-opacity="1" fill-rule="nonzero"/><path fill="#d4def9" d="M 614.84375 83.738281 C 613.871094 83.738281 613.089844 82.960938 613.089844 81.988281 C 613.089844 81.015625 613.871094 80.238281 614.84375 80.238281 C 625.152344 80.238281 633.519531 71.871094 633.519531 61.5625 C 633.519531 51.25 625.152344 42.886719 614.84375 42.886719 C 613.871094 42.886719 613.089844 42.109375 613.089844 41.136719 C 613.089844 40.164062 613.871094 39.382812 614.84375 39.382812 C 626.902344 39.382812 636.824219 49.304688 636.824219 61.367188 C 636.824219 73.429688 627.097656 83.738281 614.84375 83.738281 Z M 614.84375 83.738281 " fill-opacity="1" fill-rule="nonzero"/><path fill="#d4def9" d="M 614.84375 75.957031 C 613.871094 75.957031 613.089844 75.179688 613.089844 74.207031 C 613.089844 73.234375 613.871094 72.457031 614.84375 72.457031 C 620.871094 72.457031 625.734375 67.59375 625.734375 61.5625 C 625.734375 55.53125 620.871094 50.667969 614.84375 50.667969 C 613.871094 50.667969 613.089844 49.890625 613.089844 48.917969 C 613.089844 47.945312 613.871094 47.164062 614.84375 47.164062 C 622.625 47.164062 629.042969 53.585938 629.042969 61.367188 C 629.042969 69.539062 622.816406 75.957031 614.84375 75.957031 Z M 614.84375 75.957031 " fill-opacity="1" fill-rule="nonzero"/><path fill="#d4def9" d="M 435.671875 333.914062 L 428.085938 333.914062 C 426.722656 328.078125 424.585938 322.4375 421.472656 317.574219 L 427.113281 311.929688 C 429.058594 309.984375 429.058594 306.875 427.113281 304.734375 L 415.050781 292.671875 C 413.105469 290.726562 409.996094 290.726562 407.855469 292.671875 L 402.601562 297.925781 C 397.738281 294.8125 392.097656 292.476562 386.261719 290.921875 L 386.261719 283.140625 C 386.261719 280.417969 383.925781 278.082031 381.203125 278.082031 L 364.082031 278.082031 C 361.359375 278.082031 359.027344 280.417969 359.027344 283.140625 L 359.027344 290.726562 C 353.1875 292.089844 347.546875 294.226562 342.683594 297.339844 L 337.238281 291.894531 C 335.292969 289.949219 332.179688 289.949219 330.039062 291.894531 L 317.976562 303.957031 C 316.03125 305.902344 316.03125 309.011719 317.976562 311.152344 L 323.230469 316.40625 C 320.117188 321.269531 317.785156 326.910156 316.226562 332.746094 L 308.445312 332.746094 C 305.722656 332.746094 303.386719 335.082031 303.386719 337.804688 L 303.386719 354.925781 C 303.386719 357.648438 305.722656 359.980469 308.445312 359.980469 L 316.03125 359.980469 C 317.394531 365.816406 319.535156 371.460938 322.648438 376.324219 L 317.003906 381.964844 C 315.058594 383.910156 315.058594 387.023438 317.003906 389.164062 L 329.066406 401.222656 C 331.011719 403.167969 334.125 403.167969 336.265625 401.222656 L 341.515625 395.777344 C 346.378906 398.890625 352.023438 401.222656 357.859375 402.78125 L 357.859375 410.5625 C 357.859375 413.285156 360.191406 415.621094 362.917969 415.621094 L 380.035156 415.621094 C 382.757812 415.621094 385.09375 413.285156 385.09375 410.5625 L 385.09375 402.976562 C 390.929688 401.613281 396.570312 399.472656 401.433594 396.359375 L 407.078125 402.003906 C 409.023438 403.949219 412.132812 403.949219 414.273438 402.003906 L 426.335938 389.941406 C 428.28125 387.996094 428.28125 384.882812 426.335938 382.742188 L 421.082031 377.492188 C 424.195312 372.628906 426.53125 366.984375 428.085938 361.148438 L 435.867188 361.148438 C 438.589844 361.148438 440.925781 358.816406 440.925781 356.089844 L 440.925781 338.972656 C 440.730469 336.25 438.398438 333.914062 435.671875 333.914062 Z M 372.058594 378.851562 C 354.355469 378.851562 340.15625 364.457031 340.15625 346.949219 C 340.15625 329.246094 354.550781 315.042969 372.058594 315.042969 C 389.761719 315.042969 403.964844 329.441406 403.964844 346.949219 C 403.964844 364.652344 389.566406 378.851562 372.058594 378.851562 Z M 372.058594 378.851562 " fill-opacity="1" fill-rule="nonzero"/><path fill="#803bec" d="M 438.980469 330.414062 L 431.394531 330.414062 C 430.03125 324.578125 427.890625 318.933594 424.777344 314.070312 L 430.421875 308.429688 C 432.367188 306.484375 432.367188 303.371094 430.421875 301.230469 L 418.359375 289.171875 C 416.414062 287.226562 413.300781 287.226562 411.160156 289.171875 L 405.714844 294.617188 C 400.851562 291.503906 395.210938 289.171875 389.375 287.613281 L 389.375 279.832031 C 389.375 277.109375 387.039062 274.773438 384.316406 274.773438 L 367.195312 274.773438 C 364.472656 274.773438 362.136719 277.109375 362.136719 279.832031 L 362.136719 287.417969 C 356.300781 288.78125 350.660156 290.921875 345.796875 294.035156 L 340.351562 288.585938 C 338.40625 286.640625 335.292969 286.640625 333.152344 288.585938 L 321.089844 300.648438 C 319.144531 302.59375 319.144531 305.707031 321.089844 307.847656 L 326.34375 313.097656 C 323.230469 317.960938 320.894531 323.601562 319.339844 329.441406 L 311.558594 329.441406 C 308.835938 329.441406 306.5 331.773438 306.5 334.496094 L 306.5 351.617188 C 306.5 354.339844 308.835938 356.675781 311.558594 356.675781 L 319.144531 356.675781 C 320.507812 362.511719 322.648438 368.152344 325.757812 373.015625 L 320.117188 378.65625 C 318.171875 380.601562 318.171875 383.714844 320.117188 385.855469 L 332.179688 397.917969 C 334.125 399.863281 337.238281 399.863281 339.378906 397.917969 L 344.628906 392.664062 C 349.492188 395.777344 355.132812 398.109375 360.972656 399.667969 L 360.972656 407.449219 C 360.972656 410.171875 363.304688 412.507812 366.027344 412.507812 L 383.148438 412.507812 C 385.871094 412.507812 388.207031 410.171875 388.207031 407.449219 L 388.207031 399.667969 C 394.042969 398.304688 399.683594 396.164062 404.546875 393.054688 L 410.1875 398.695312 C 412.132812 400.640625 415.246094 400.640625 417.386719 398.695312 L 429.449219 386.632812 C 431.394531 384.6875 431.394531 381.574219 429.449219 379.4375 L 424.195312 374.183594 C 427.308594 369.320312 429.644531 363.679688 431.199219 357.84375 L 438.980469 357.84375 C 441.703125 357.84375 444.039062 355.507812 444.039062 352.785156 L 444.039062 335.46875 C 443.84375 332.746094 441.703125 330.414062 438.980469 330.414062 Z M 375.171875 375.351562 C 357.46875 375.351562 343.269531 360.953125 343.269531 343.445312 C 343.269531 325.9375 357.664062 311.542969 375.171875 311.542969 C 392.875 311.542969 407.078125 325.9375 407.078125 343.445312 C 407.078125 360.953125 392.875 375.351562 375.171875 375.351562 Z M 375.171875 375.351562 " fill-opacity="1" fill-rule="nonzero"/><path fill="#803bec" d="M 1044.769531 233.921875 C 1031.152344 191.707031 985.824219 168.558594 943.609375 182.371094 C 901.394531 195.988281 878.246094 241.3125 892.058594 283.527344 C 905.675781 325.742188 951.003906 348.894531 993.21875 335.082031 C 1035.238281 321.464844 1058.386719 276.136719 1044.769531 233.921875 Z M 968.316406 186.453125 C 979.40625 186.453125 988.160156 195.402344 988.160156 206.296875 C 988.160156 217.386719 979.210938 226.140625 968.316406 226.140625 C 957.226562 226.140625 948.472656 217.191406 948.472656 206.296875 C 948.472656 195.207031 957.226562 186.453125 968.316406 186.453125 Z M 899.449219 236.257812 C 902.757812 225.75 914.039062 220.109375 924.546875 223.417969 C 935.050781 226.722656 940.691406 238.007812 937.386719 248.511719 C 934.078125 259.015625 922.792969 264.660156 912.289062 261.351562 C 901.785156 258.042969 896.144531 246.761719 899.449219 236.257812 Z M 953.53125 312.710938 C 947.113281 321.65625 934.660156 323.605469 925.714844 317.183594 C 916.765625 310.765625 914.820312 298.3125 921.238281 289.363281 C 927.660156 280.417969 940.109375 278.472656 949.058594 284.890625 C 958.007812 291.503906 960.144531 303.957031 953.53125 312.710938 Z M 1010.726562 317.183594 C 1001.777344 323.605469 989.328125 321.65625 982.90625 312.710938 C 976.488281 303.761719 978.433594 291.308594 987.382812 284.890625 C 996.328125 278.472656 1008.78125 280.417969 1015.199219 289.363281 C 1021.621094 298.3125 1019.675781 310.765625 1010.726562 317.183594 Z M 1024.34375 261.351562 C 1013.839844 264.660156 1002.75 259.015625 999.25 248.511719 C 995.941406 238.007812 1001.582031 226.917969 1012.085938 223.417969 C 1022.59375 220.109375 1033.679688 225.75 1037.183594 236.257812 C 1040.488281 246.761719 1034.652344 258.042969 1024.34375 261.351562 Z M 1024.34375 261.351562 " fill-opacity="1" fill-rule="nonzero"/><path fill="#d4def9" d="M 1039.90625 229.058594 C 1026.289062 186.84375 980.960938 163.695312 938.746094 177.507812 C 896.53125 191.125 873.382812 236.449219 887.195312 278.664062 C 900.8125 320.878906 946.140625 344.03125 988.355469 330.21875 C 1030.570312 316.601562 1053.523438 271.273438 1039.90625 229.058594 Z M 963.453125 181.589844 C 974.542969 181.589844 983.296875 190.539062 983.296875 201.433594 C 983.296875 212.523438 974.347656 221.277344 963.453125 221.277344 C 952.558594 221.277344 943.609375 212.328125 943.609375 201.433594 C 943.609375 190.539062 952.558594 181.589844 963.453125 181.589844 Z M 894.78125 231.585938 C 898.089844 221.082031 909.371094 215.441406 919.875 218.746094 C 930.382812 222.054688 936.023438 233.339844 932.714844 243.84375 C 929.410156 254.347656 918.125 259.988281 907.621094 256.683594 C 897.117188 253.179688 891.28125 241.898438 894.78125 231.585938 Z M 948.863281 308.039062 C 942.441406 316.988281 929.992188 318.933594 921.042969 312.515625 C 912.09375 306.09375 910.148438 293.644531 916.570312 284.695312 C 922.988281 275.746094 935.441406 273.800781 944.386719 280.222656 C 953.335938 286.640625 955.28125 299.09375 948.863281 308.039062 Z M 1006.058594 312.320312 C 997.109375 318.738281 984.65625 316.792969 978.238281 307.847656 C 971.820312 298.898438 973.765625 286.445312 982.710938 280.027344 C 991.660156 273.609375 1004.113281 275.554688 1010.53125 284.5 C 1016.949219 293.449219 1014.8125 305.902344 1006.058594 312.320312 Z M 1019.480469 256.683594 C 1008.976562 259.988281 997.886719 254.347656 994.382812 243.84375 C 991.078125 233.339844 996.71875 222.25 1007.222656 218.746094 C 1017.730469 215.441406 1028.816406 221.082031 1032.320312 231.585938 C 1035.625 241.898438 1029.984375 253.179688 1019.480469 256.683594 Z M 1019.480469 256.683594 " fill-opacity="1" fill-rule="nonzero"/><path fill="#803bec" d="M 989.519531 253.960938 C 989.519531 254.8125 989.480469 255.664062 989.394531 256.515625 C 989.3125 257.363281 989.1875 258.207031 989.019531 259.042969 C 988.855469 259.882812 988.648438 260.710938 988.398438 261.527344 C 988.152344 262.34375 987.863281 263.144531 987.535156 263.933594 C 987.210938 264.722656 986.84375 265.496094 986.441406 266.246094 C 986.039062 267 985.601562 267.730469 985.128906 268.441406 C 984.652344 269.152344 984.144531 269.835938 983.605469 270.496094 C 983.0625 271.15625 982.488281 271.789062 981.886719 272.390625 C 981.28125 272.996094 980.652344 273.570312 979.992188 274.109375 C 979.332031 274.652344 978.644531 275.160156 977.9375 275.632812 C 977.226562 276.109375 976.496094 276.546875 975.742188 276.949219 C 974.988281 277.351562 974.21875 277.714844 973.429688 278.042969 C 972.640625 278.371094 971.835938 278.65625 971.019531 278.90625 C 970.203125 279.152344 969.375 279.359375 968.539062 279.527344 C 967.703125 279.691406 966.859375 279.816406 966.007812 279.902344 C 965.160156 279.984375 964.308594 280.027344 963.453125 280.027344 C 962.597656 280.027344 961.746094 279.984375 960.898438 279.902344 C 960.046875 279.816406 959.203125 279.691406 958.367188 279.527344 C 957.53125 279.359375 956.703125 279.152344 955.886719 278.90625 C 955.070312 278.65625 954.265625 278.371094 953.476562 278.042969 C 952.6875 277.714844 951.917969 277.351562 951.164062 276.949219 C 950.410156 276.546875 949.679688 276.109375 948.96875 275.632812 C 948.261719 275.160156 947.574219 274.652344 946.914062 274.109375 C 946.257812 273.570312 945.625 272.996094 945.019531 272.390625 C 944.417969 271.789062 943.84375 271.15625 943.300781 270.496094 C 942.761719 269.835938 942.253906 269.152344 941.777344 268.441406 C 941.304688 267.730469 940.867188 267 940.464844 266.246094 C 940.0625 265.496094 939.695312 264.722656 939.371094 263.933594 C 939.042969 263.144531 938.753906 262.34375 938.507812 261.527344 C 938.261719 260.710938 938.050781 259.882812 937.886719 259.042969 C 937.71875 258.207031 937.59375 257.363281 937.511719 256.515625 C 937.425781 255.664062 937.386719 254.8125 937.386719 253.960938 C 937.386719 253.105469 937.425781 252.253906 937.511719 251.402344 C 937.59375 250.554688 937.71875 249.710938 937.886719 248.875 C 938.050781 248.035156 938.261719 247.210938 938.507812 246.390625 C 938.753906 245.574219 939.042969 244.773438 939.371094 243.984375 C 939.695312 243.195312 940.0625 242.421875 940.464844 241.671875 C 940.867188 240.917969 941.304688 240.1875 941.777344 239.476562 C 942.253906 238.765625 942.761719 238.082031 943.300781 237.421875 C 943.84375 236.761719 944.417969 236.128906 945.019531 235.527344 C 945.625 234.921875 946.257812 234.351562 946.914062 233.808594 C 947.574219 233.265625 948.261719 232.757812 948.96875 232.285156 C 949.679688 231.808594 950.410156 231.371094 951.164062 230.96875 C 951.917969 230.566406 952.6875 230.203125 953.476562 229.875 C 954.265625 229.546875 955.070312 229.261719 955.886719 229.011719 C 956.703125 228.765625 957.53125 228.558594 958.367188 228.390625 C 959.203125 228.226562 960.046875 228.101562 960.898438 228.015625 C 961.746094 227.933594 962.597656 227.890625 963.453125 227.890625 C 964.308594 227.890625 965.160156 227.933594 966.007812 228.015625 C 966.859375 228.101562 967.703125 228.226562 968.539062 228.390625 C 969.375 228.558594 970.203125 228.765625 971.019531 229.011719 C 971.835938 229.261719 972.640625 229.546875 973.429688 229.875 C 974.21875 230.203125 974.988281 230.566406 975.742188 230.96875 C 976.496094 231.371094 977.226562 231.808594 977.9375 232.285156 C 978.644531 232.757812 979.332031 233.265625 979.992188 233.808594 C 980.652344 234.351562 981.28125 234.921875 981.886719 235.527344 C 982.488281 236.128906 983.0625 236.761719 983.605469 237.421875 C 984.144531 238.082031 984.652344 238.765625 985.128906 239.476562 C 985.601562 240.1875 986.039062 240.917969 986.441406 241.671875 C 986.84375 242.421875 987.210938 243.195312 987.535156 243.984375 C 987.863281 244.773438 988.152344 245.574219 988.398438 246.390625 C 988.648438 247.207031 988.855469 248.035156 989.019531 248.875 C 989.1875 249.710938 989.3125 250.554688 989.394531 251.402344 C 989.480469 252.253906 989.519531 253.105469 989.519531 253.960938 Z M 989.519531 253.960938 " fill-opacity="1" fill-rule="nonzero"/><path fill="#d9d9d9" d="M 983.296875 253.960938 C 983.296875 254.609375 983.265625 255.257812 983.199219 255.902344 C 983.136719 256.550781 983.042969 257.191406 982.914062 257.832031 C 982.789062 258.46875 982.628906 259.097656 982.441406 259.71875 C 982.253906 260.339844 982.035156 260.953125 981.785156 261.550781 C 981.535156 262.152344 981.257812 262.738281 980.953125 263.3125 C 980.648438 263.886719 980.3125 264.441406 979.953125 264.984375 C 979.589844 265.523438 979.203125 266.046875 978.792969 266.546875 C 978.378906 267.050781 977.945312 267.53125 977.484375 267.988281 C 977.023438 268.449219 976.542969 268.886719 976.042969 269.296875 C 975.539062 269.710938 975.015625 270.097656 974.476562 270.457031 C 973.9375 270.820312 973.378906 271.152344 972.808594 271.457031 C 972.234375 271.765625 971.648438 272.042969 971.046875 272.292969 C 970.445312 272.539062 969.835938 272.757812 969.214844 272.949219 C 968.589844 273.136719 967.960938 273.292969 967.324219 273.421875 C 966.6875 273.546875 966.046875 273.644531 965.398438 273.707031 C 964.75 273.769531 964.101562 273.800781 963.453125 273.800781 C 962.804688 273.800781 962.15625 273.769531 961.507812 273.707031 C 960.863281 273.644531 960.21875 273.546875 959.582031 273.421875 C 958.945312 273.292969 958.316406 273.136719 957.691406 272.949219 C 957.070312 272.757812 956.460938 272.539062 955.859375 272.292969 C 955.257812 272.042969 954.671875 271.765625 954.097656 271.457031 C 953.527344 271.152344 952.96875 270.820312 952.429688 270.457031 C 951.890625 270.097656 951.367188 269.710938 950.863281 269.296875 C 950.363281 268.886719 949.882812 268.449219 949.421875 267.988281 C 948.960938 267.53125 948.527344 267.050781 948.113281 266.546875 C 947.703125 266.046875 947.316406 265.523438 946.953125 264.984375 C 946.59375 264.441406 946.257812 263.886719 945.953125 263.3125 C 945.648438 262.738281 945.371094 262.152344 945.121094 261.550781 C 944.871094 260.953125 944.652344 260.339844 944.464844 259.71875 C 944.277344 259.097656 944.117188 258.46875 943.992188 257.832031 C 943.863281 257.191406 943.769531 256.550781 943.707031 255.902344 C 943.640625 255.257812 943.609375 254.609375 943.609375 253.960938 C 943.609375 253.308594 943.640625 252.660156 943.707031 252.015625 C 943.769531 251.367188 943.863281 250.726562 943.992188 250.089844 C 944.117188 249.449219 944.277344 248.820312 944.464844 248.199219 C 944.652344 247.578125 944.871094 246.964844 945.121094 246.367188 C 945.371094 245.765625 945.648438 245.179688 945.953125 244.605469 C 946.257812 244.03125 946.59375 243.476562 946.953125 242.933594 C 947.316406 242.394531 947.703125 241.875 948.113281 241.371094 C 948.527344 240.867188 948.960938 240.386719 949.421875 239.929688 C 949.882812 239.46875 950.363281 239.03125 950.863281 238.621094 C 951.367188 238.207031 951.890625 237.820312 952.429688 237.460938 C 952.96875 237.097656 953.527344 236.765625 954.097656 236.460938 C 954.671875 236.152344 955.257812 235.875 955.859375 235.625 C 956.460938 235.378906 957.070312 235.160156 957.691406 234.972656 C 958.316406 234.78125 958.945312 234.625 959.582031 234.496094 C 960.21875 234.371094 960.863281 234.277344 961.507812 234.210938 C 962.15625 234.148438 962.804688 234.117188 963.453125 234.117188 C 964.101562 234.117188 964.75 234.148438 965.398438 234.210938 C 966.046875 234.277344 966.6875 234.371094 967.324219 234.496094 C 967.960938 234.625 968.589844 234.78125 969.214844 234.972656 C 969.835938 235.160156 970.445312 235.378906 971.046875 235.625 C 971.648438 235.875 972.234375 236.152344 972.808594 236.460938 C 973.378906 236.765625 973.9375 237.097656 974.476562 237.460938 C 975.015625 237.820312 975.539062 238.207031 976.042969 238.621094 C 976.542969 239.03125 977.023438 239.46875 977.484375 239.929688 C 977.945312 240.386719 978.378906 240.867188 978.792969 241.371094 C 979.203125 241.875 979.589844 242.394531 979.953125 242.933594 C 980.3125 243.476562 980.648438 244.03125 980.953125 244.605469 C 981.257812 245.179688 981.535156 245.765625 981.785156 246.367188 C 982.035156 246.964844 982.253906 247.578125 982.441406 248.199219 C 982.628906 248.820312 982.789062 249.449219 982.914062 250.089844 C 983.042969 250.726562 983.136719 251.367188 983.199219 252.015625 C 983.265625 252.660156 983.296875 253.308594 983.296875 253.960938 Z M 983.296875 253.960938 " fill-opacity="1" fill-rule="nonzero"/><path fill="#803bec" d="M 624.179688 609.769531 L 718.140625 603.933594 L 745.570312 464.644531 L 651.609375 470.285156 Z M 624.179688 609.769531 " fill-opacity="1" fill-rule="nonzero"/><path fill="#803bec" d="M 558.816406 622.21875 L 784.671875 608.40625 L 784.480469 604.515625 C 784.285156 599.847656 780.199219 596.539062 775.722656 596.734375 L 566.597656 609.574219 C 561.929688 609.769531 558.621094 613.851562 558.816406 618.328125 Z M 558.816406 622.21875 " fill-opacity="1" fill-rule="nonzero"/><path fill="#803bec" d="M 368.363281 214.664062 L 434.3125 542.070312 C 435.867188 549.65625 443.066406 555.6875 450.652344 555.6875 L 956.253906 526.3125 C 963.84375 526.3125 968.511719 520.28125 967.148438 512.695312 L 901.203125 216.996094 C 899.644531 209.410156 892.445312 203.378906 884.859375 203.378906 L 379.0625 200.851562 C 371.671875 201.046875 366.808594 207.074219 368.363281 214.664062 Z M 368.363281 214.664062 " fill-opacity="1" fill-rule="nonzero"/><path fill="#803bec" d="M 368.363281 214.664062 L 430.808594 524.949219 L 963.648438 495.769531 L 901.203125 217.191406 C 899.644531 209.605469 892.445312 203.574219 884.859375 203.574219 L 379.0625 201.046875 C 371.671875 201.046875 366.808594 207.074219 368.363281 214.664062 Z M 368.363281 214.664062 " fill-opacity="1" fill-rule="nonzero"/><path fill="#d4def9" d="M 380.230469 202.796875 L 446.179688 530.203125 C 447.734375 537.789062 454.933594 543.820312 462.519531 543.820312 L 968.121094 514.445312 C 975.710938 514.445312 980.378906 508.414062 979.015625 500.828125 L 913.066406 205.128906 C 911.511719 197.542969 904.3125 191.511719 896.726562 191.511719 L 390.929688 188.984375 C 383.539062 189.179688 378.671875 195.402344 380.230469 202.796875 Z M 380.230469 202.796875 " fill-opacity="1" fill-rule="nonzero"/><path fill="#d9d9d9" d="M 380.230469 202.796875 L 442.675781 513.277344 L 975.515625 484.097656 L 913.066406 205.519531 C 911.511719 197.933594 904.3125 191.902344 896.726562 191.902344 L 390.929688 189.371094 C 383.539062 189.179688 378.671875 195.402344 380.230469 202.796875 Z M 380.230469 202.796875 " fill-opacity="1" fill-rule="nonzero"/><path fill="#e4a1f7" d="M 393.265625 202.992188 L 452.792969 498.882812 L 959.5625 469.699219 L 899.839844 205.519531 Z M 393.265625 202.992188 " fill-opacity="1" fill-rule="nonzero"/><path stroke-linecap="butt" transform="matrix(1.945374, 0, 0, 1.945374, 222.849326, -94.457327)" fill-opacity="1" fill="#d9d9d9" fill-rule="nonzero" stroke-linejoin="miter" d="M 375.499324 277.899001 L 136.400454 290.900598 C 133.800134 291.000996 131.599401 289.300247 131.099416 286.699927 L 97.200889 115.799706 C 96.600507 112.599004 99.100428 109.500708 102.39952 109.599098 L 343.100749 115.799706 C 345.500272 115.900104 347.500208 117.600854 348.000193 119.899978 L 380.199978 271.600003 C 380.900759 274.800705 378.599627 277.700212 375.499324 277.899001 Z M 375.499324 277.899001 " stroke="#162667" stroke-width="1.477" stroke-opacity="1" stroke-miterlimit="10"/><path fill="#d4def9" d="M 953.144531 433.128906 L 488.003906 456.667969 L 470.496094 368.152344 L 936.414062 353.757812 Z M 953.144531 433.128906 " fill-opacity="1" fill-rule="nonzero"/><path fill="#803bec" d="M 933.882812 342.085938 L 606.28125 351.035156 L 562.511719 134.707031 L 891.472656 142.101562 Z M 933.882812 342.085938 " fill-opacity="1" fill-rule="nonzero"/><path fill="#d9d9d9" d="M 933.105469 370.292969 L 612.507812 381.382812 L 611.535156 377.492188 L 932.328125 366.597656 Z M 933.105469 370.292969 " fill-opacity="1" fill-rule="nonzero"/><path fill="#d9d9d9" d="M 835.449219 180.230469 L 628.65625 177.507812 L 652.777344 295.980469 L 859.179688 292.867188 Z M 827.859375 190.929688 L 830.390625 203.183594 L 817.355469 203.183594 L 814.828125 190.929688 Z M 801.015625 190.734375 L 803.542969 203.183594 L 790.507812 202.992188 L 787.980469 190.539062 Z M 773.777344 190.34375 L 776.308594 202.796875 L 763.078125 202.601562 L 760.550781 190.152344 Z M 746.15625 190.152344 L 748.683594 202.601562 L 735.261719 202.40625 L 732.730469 189.761719 Z M 649.664062 202.019531 L 647.136719 189.179688 L 661.140625 189.371094 L 663.671875 202.210938 Z M 666.589844 284.308594 L 663.867188 271.46875 L 677.871094 271.273438 L 680.597656 284.113281 Z M 678.652344 202.210938 L 676.121094 189.371094 L 689.933594 189.566406 L 692.460938 202.210938 Z M 695.378906 283.917969 L 692.65625 271.078125 L 704.136719 270.882812 L 706.664062 283.722656 Z M 707.054688 202.40625 L 704.523438 189.761719 L 718.140625 189.957031 L 720.671875 202.601562 Z M 723.78125 283.527344 L 721.253906 270.882812 L 734.871094 270.6875 L 737.402344 283.335938 Z M 750.824219 283.140625 L 748.292969 270.496094 L 761.71875 270.300781 L 764.246094 282.945312 Z M 778.449219 282.945312 L 775.917969 270.300781 L 789.148438 270.105469 L 791.675781 282.554688 Z M 804.710938 282.554688 L 802.183594 270.105469 L 815.214844 269.910156 L 817.746094 282.363281 Z M 829.027344 269.910156 L 841.867188 269.714844 L 844.394531 281.972656 L 831.558594 282.167969 Z M 829.027344 269.910156 " fill-opacity="1" fill-rule="nonzero"/><path fill="#ffffff" d="M 765.804688 235.476562 L 734.289062 220.5 C 733.316406 220.109375 732.148438 220.886719 732.34375 221.859375 L 738.566406 251.625 C 738.761719 252.402344 739.734375 252.792969 740.511719 252.402344 L 765.996094 237.421875 C 766.582031 237.230469 766.582031 236.0625 765.804688 235.476562 Z M 765.804688 235.476562 " fill-opacity="1" fill-rule="nonzero"/><path fill="#803bec" d="M 543.058594 152.023438 L 462.128906 150.464844 L 461.351562 145.992188 L 542.085938 147.742188 Z M 543.058594 152.023438 " fill-opacity="1" fill-rule="nonzero"/><path fill="#ffffff" d="M 546.171875 167.390625 L 465.242188 166.222656 L 464.464844 161.75 L 545.199219 162.914062 Z M 546.171875 167.390625 " fill-opacity="1" fill-rule="nonzero"/><path fill="#803bec" d="M 549.28125 182.757812 L 468.355469 181.785156 L 467.578125 177.3125 L 548.308594 178.285156 Z M 549.28125 182.757812 " fill-opacity="1" fill-rule="nonzero"/><path fill="#ffffff" d="M 452.597656 150.269531 L 443.648438 150.269531 L 442.871094 145.601562 L 451.625 145.796875 Z M 452.597656 150.269531 " fill-opacity="1" fill-rule="nonzero"/><path fill="#ffffff" d="M 455.710938 166.027344 L 446.761719 165.832031 L 445.984375 161.359375 L 454.738281 161.554688 Z M 455.710938 166.027344 " fill-opacity="1" fill-rule="nonzero"/><path fill="#ffffff" d="M 458.824219 181.589844 L 449.875 181.589844 L 449.097656 177.117188 L 457.851562 177.117188 Z M 458.824219 181.589844 " fill-opacity="1" fill-rule="nonzero"/><path fill="#ffffff" d="M 562.316406 247.539062 L 481.585938 247.734375 L 480.613281 243.257812 L 561.34375 243.066406 Z M 562.316406 247.539062 " fill-opacity="1" fill-rule="nonzero"/><path fill="#d4def9" d="M 565.429688 262.90625 L 484.695312 263.492188 L 483.917969 259.015625 L 564.457031 258.433594 Z M 565.429688 262.90625 " fill-opacity="1" fill-rule="nonzero"/><path fill="#803bec" d="M 568.542969 278.277344 L 487.808594 279.25 L 487.03125 274.582031 L 567.570312 273.996094 Z M 568.542969 278.277344 " fill-opacity="1" fill-rule="nonzero"/><path fill="#ffffff" d="M 472.050781 247.734375 L 463.101562 247.734375 L 462.128906 243.257812 L 471.078125 243.257812 Z M 472.050781 247.734375 " fill-opacity="1" fill-rule="nonzero"/><path fill="#ffffff" d="M 475.164062 263.492188 L 466.214844 263.492188 L 465.4375 259.015625 L 474.191406 259.015625 Z M 475.164062 263.492188 " fill-opacity="1" fill-rule="nonzero"/><path fill="#ffffff" d="M 478.277344 279.25 L 469.328125 279.445312 L 468.550781 274.773438 L 477.304688 274.773438 Z M 478.277344 279.25 " fill-opacity="1" fill-rule="nonzero"/><path fill="#ffffff" d="M 523.214844 197.152344 L 471.46875 196.765625 L 470.496094 192.289062 L 522.242188 192.679688 Z M 523.214844 197.152344 " fill-opacity="1" fill-rule="nonzero"/><path fill="#d4def9" d="M 526.328125 212.71875 L 474.582031 212.328125 L 473.609375 207.855469 L 525.355469 208.242188 Z M 526.328125 212.71875 " fill-opacity="1" fill-rule="nonzero"/><path fill="#803bec" d="M 529.441406 228.085938 L 477.691406 228.085938 L 476.71875 223.609375 L 528.46875 223.609375 Z M 529.441406 228.085938 " fill-opacity="1" fill-rule="nonzero"/><path fill="#803bec" d="M 689.933594 407.449219 L 619.316406 410.367188 L 617.175781 400.058594 L 687.792969 397.332031 Z M 689.933594 407.449219 " fill-opacity="1" fill-rule="nonzero"/><path fill="#ffffff" d="M 754.910156 423.207031 L 686.625 426.320312 L 684.488281 416.203125 L 752.964844 413.089844 Z M 754.910156 423.207031 " fill-opacity="1" fill-rule="nonzero"/><path fill="#ffffff" d="M 844.980469 392.46875 L 799.652344 394.609375 L 798.289062 387.800781 L 843.617188 385.855469 Z M 844.980469 392.46875 " fill-opacity="1" fill-rule="nonzero"/><path fill="#803bec" d="M 790.507812 411.144531 L 752.378906 412.703125 L 750.433594 402.78125 L 788.371094 401.417969 Z M 790.507812 411.144531 " fill-opacity="1" fill-rule="nonzero"/><path fill="#d9d9d9" d="M 894.78125 407.839844 L 858.402344 409.394531 L 857.234375 403.949219 L 893.613281 402.390625 Z M 894.78125 407.839844 " fill-opacity="1" fill-rule="nonzero"/><path fill="#803bec" d="M 579.824219 396.164062 L 505.125 398.890625 L 504.152344 393.441406 L 578.851562 390.71875 Z M 579.824219 396.164062 " fill-opacity="1" fill-rule="nonzero"/><path fill="#d9d9d9" d="M 498.898438 399.085938 L 493.257812 399.472656 L 492.089844 393.832031 L 497.730469 393.636719 Z M 498.898438 399.085938 " fill-opacity="1" fill-rule="nonzero"/><path fill="#d9d9d9" d="M 582.550781 409.003906 L 507.847656 412.117188 L 506.679688 406.671875 L 581.382812 403.753906 Z M 582.550781 409.003906 " fill-opacity="1" fill-rule="nonzero"/><path fill="#d9d9d9" d="M 501.425781 412.3125 L 495.980469 412.703125 L 494.8125 407.058594 L 500.257812 406.867188 Z M 501.425781 412.3125 " fill-opacity="1" fill-rule="nonzero"/><path fill="#803bec" d="M 587.800781 435.074219 L 513.097656 438.574219 L 511.933594 432.933594 L 586.632812 429.625 Z M 587.800781 435.074219 " fill-opacity="1" fill-rule="nonzero"/><path fill="#d9d9d9" d="M 506.679688 438.769531 L 501.230469 439.160156 L 500.066406 433.515625 L 505.511719 433.324219 Z M 506.679688 438.769531 " fill-opacity="1" fill-rule="nonzero"/><path fill="#d9d9d9" d="M 577.296875 383.132812 L 502.59375 385.855469 L 501.425781 380.214844 L 576.128906 377.683594 Z M 577.296875 383.132812 " fill-opacity="1" fill-rule="nonzero"/><path fill="#d9d9d9" d="M 496.175781 386.050781 L 490.726562 386.246094 L 489.558594 380.601562 L 495.007812 380.410156 Z M 496.175781 386.050781 " fill-opacity="1" fill-rule="nonzero"/><path fill="#d9d9d9" d="M 585.078125 422.039062 L 510.375 425.347656 L 509.402344 419.898438 L 584.105469 416.59375 Z M 585.078125 422.039062 " fill-opacity="1" fill-rule="nonzero"/><path fill="#d9d9d9" d="M 504.152344 425.542969 L 498.507812 425.929688 L 497.339844 420.289062 L 502.984375 420.09375 Z M 504.152344 425.542969 " fill-opacity="1" fill-rule="nonzero"/><path fill="#803bec" d="M 597.527344 380.019531 C 597.917969 382.160156 596.359375 383.910156 594.027344 383.910156 C 591.691406 383.910156 589.550781 382.355469 588.96875 380.214844 C 588.578125 378.074219 590.136719 376.324219 592.46875 376.324219 C 595 376.324219 597.140625 378.074219 597.527344 380.019531 Z M 597.527344 380.019531 " fill-opacity="1" fill-rule="nonzero"/><path fill="#803bec" d="M 600.445312 394.027344 C 600.835938 396.164062 599.277344 397.917969 596.945312 397.917969 C 594.609375 397.917969 592.46875 396.359375 591.886719 394.21875 C 591.496094 392.082031 593.054688 390.328125 595.386719 390.328125 C 597.722656 390.136719 599.863281 391.886719 600.445312 394.027344 Z M 600.445312 394.027344 " fill-opacity="1" fill-rule="nonzero"/><path fill="#803bec" d="M 603.171875 407.839844 C 603.558594 409.976562 602.003906 411.730469 599.667969 411.730469 C 597.332031 411.730469 595.195312 410.171875 594.609375 408.03125 C 594.222656 405.894531 595.777344 404.140625 598.113281 404.140625 C 600.445312 404.140625 602.78125 405.699219 603.171875 407.839844 Z M 603.171875 407.839844 " fill-opacity="1" fill-rule="nonzero"/><path fill="#803bec" d="M 605.894531 421.648438 C 606.28125 423.789062 604.726562 425.542969 602.390625 425.734375 C 600.058594 425.929688 597.917969 424.179688 597.332031 422.039062 C 596.945312 419.898438 598.5 418.148438 600.835938 417.953125 C 603.363281 417.953125 605.503906 419.511719 605.894531 421.648438 Z M 605.894531 421.648438 " fill-opacity="1" fill-rule="nonzero"/><path fill="#803bec" d="M 608.8125 435.65625 C 609.199219 437.796875 607.644531 439.546875 605.308594 439.742188 C 602.976562 439.9375 600.835938 438.1875 600.25 436.046875 C 599.863281 433.90625 601.417969 432.15625 603.753906 431.960938 C 606.089844 431.765625 608.421875 433.515625 608.8125 435.65625 Z M 608.8125 435.65625 " fill-opacity="1" fill-rule="nonzero"/><path fill="#ffffff" d="M 942.636719 551.40625 L 880.191406 558.992188 L 879.609375 514.445312 C 879.609375 514.445312 850.234375 522.617188 847.3125 503.550781 C 844.394531 484.484375 847.507812 475.148438 847.507812 475.148438 C 847.507812 475.148438 840.117188 475.730469 837.585938 473.980469 C 835.640625 472.8125 844.589844 452.777344 849.648438 437.992188 C 851.59375 432.738281 852.957031 428.070312 853.152344 425.152344 C 853.152344 425.152344 866.183594 404.53125 888.945312 407.058594 C 895.949219 407.839844 904.121094 410.949219 912.875 417.566406 C 950.03125 445.773438 937.191406 493.046875 935.441406 507.050781 C 933.105469 521.058594 942.636719 551.40625 942.636719 551.40625 Z M 942.636719 551.40625 " fill-opacity="1" fill-rule="nonzero"/><path fill="#803bec" d="M 870.660156 549.460938 L 879.996094 533.507812 L 937.96875 528.0625 C 937.96875 528.0625 951.585938 548.683594 948.863281 548.683594 C 946.332031 548.683594 870.660156 549.460938 870.660156 549.460938 Z M 870.660156 549.460938 " fill-opacity="1" fill-rule="nonzero"/><path fill="#803bec" d="M 891.28125 463.476562 C 891.28125 463.476562 896.335938 438.574219 885.054688 434.101562 C 873.769531 429.433594 861.320312 432.15625 852.957031 425.152344 C 840.894531 415.035156 842.449219 399.085938 845.757812 391.886719 C 850.230469 381.964844 860.542969 376.128906 871.046875 374.765625 C 879.800781 373.597656 888.363281 375.933594 896.335938 379.242188 C 899.253906 380.410156 901.980469 382.160156 904.898438 383.519531 C 908.011719 384.882812 911.316406 385.660156 914.429688 386.632812 C 930.964844 392.46875 950.03125 403.363281 951.195312 423.011719 C 952.363281 443.828125 950.222656 487.988281 934.273438 511.136719 C 934.273438 511.136719 924.933594 515.804688 919.875 500.4375 C 914.820312 485.070312 925.128906 452.582031 913.261719 446.550781 C 901.589844 440.324219 910.929688 475.539062 891.28125 463.476562 Z M 891.28125 463.476562 " fill-opacity="1" fill-rule="nonzero"/><g clip-path="url(#180f552c34)"><path fill="#e4a1f7" d="M 1003.527344 761.3125 L 900.421875 761.703125 L 884.664062 761.703125 L 813.660156 762.089844 C 828.640625 737.96875 828.640625 704.703125 825.136719 674.160156 C 825.136719 673.769531 824.941406 673.1875 824.941406 672.796875 C 821.246094 642.0625 814.046875 614.046875 815.410156 601.015625 C 817.550781 580.003906 835.835938 565.023438 852.566406 555.6875 C 859.960938 551.601562 866.960938 548.488281 872.214844 546.542969 C 875.910156 544.988281 878.828125 544.207031 879.996094 543.820312 C 880.386719 543.625 880.582031 543.625 880.582031 543.625 L 939.332031 539.152344 L 939.523438 539.152344 C 941.859375 539.734375 944.195312 540.316406 946.332031 541.097656 C 984.464844 553.15625 1001.386719 575.53125 1009.167969 604.515625 C 1010.335938 608.601562 1011.308594 613.074219 1011.894531 617.355469 C 1015.785156 639.726562 1015.785156 665.210938 1016.5625 692.445312 C 1017.144531 714.816406 1011.503906 738.746094 1003.527344 761.3125 Z M 1003.527344 761.3125 " fill-opacity="1" fill-rule="nonzero"/></g><path fill="#ffffff" d="M 603.363281 657.625 C 602.585938 657.625 568.929688 659.179688 559.789062 663.070312 C 550.644531 666.960938 542.28125 676.496094 545.78125 676.882812 C 549.28125 677.46875 568.152344 683.304688 578.269531 681.550781 C 588.386719 679.800781 596.75 684.664062 597.332031 684.46875 C 597.917969 684.277344 604.144531 657.234375 604.144531 657.234375 Z M 603.363281 657.625 " fill-opacity="1" fill-rule="nonzero"/><path fill="#e4a1f7" d="M 861.515625 552.574219 L 827.082031 672.019531 C 827.082031 672.019531 755.6875 705.285156 731.371094 711.511719 C 723.589844 713.457031 708.414062 712.679688 690.90625 710.539062 C 653.359375 705.871094 605.308594 694.390625 598.113281 689.332031 C 591.886719 684.664062 592.277344 673.578125 595.777344 664.820312 C 597.917969 658.984375 601.417969 654.316406 605.117188 653.148438 C 614.0625 650.425781 707.054688 658.011719 711.917969 657.234375 C 716.78125 656.457031 760.550781 621.828125 785.453125 596.152344 C 810.351562 570.664062 861.515625 552.574219 861.515625 552.574219 Z M 861.515625 552.574219 " fill-opacity="1" fill-rule="nonzero"/><g clip-path="url(#ed2bc8708d)"><path fill="#803bec" d="M 1060.722656 620.855469 C 1060.722656 620.855469 1054.496094 620.855469 1054.496094 620.664062 C 1054.496094 620.664062 1052.164062 619.691406 1049.828125 618.714844 L 1018.703125 761.117188 L 1003.527344 761.117188 L 900.421875 761.507812 L 884.664062 761.507812 L 917.152344 612.101562 C 918.125 607.628906 922.210938 604.320312 926.6875 604.320312 L 1040.488281 604.320312 C 1043.214844 604.320312 1045.742188 605.488281 1047.492188 607.238281 L 1060.332031 620.078125 C 1060.332031 620.664062 1060.527344 620.664062 1060.722656 620.855469 Z M 1060.722656 620.855469 " fill-opacity="1" fill-rule="nonzero"/></g><g clip-path="url(#d9e5024f82)"><path fill="#e4a1f7" d="M 1063.054688 629.609375 L 1034.460938 761.117188 L 1003.527344 761.117188 L 900.421875 761.507812 L 930.1875 625.136719 C 931.160156 620.664062 935.246094 617.355469 939.71875 617.355469 L 1053.523438 617.355469 C 1056.246094 617.355469 1058.582031 618.328125 1060.332031 620.078125 C 1060.527344 620.273438 1060.722656 620.273438 1060.722656 620.46875 C 1062.667969 623.191406 1063.835938 626.304688 1063.054688 629.609375 Z M 1063.054688 629.609375 " fill-opacity="1" fill-rule="nonzero"/></g></svg>