<svg xmlns="http://www.w3.org/2000/svg" xmlns:xlink="http://www.w3.org/1999/xlink" width="500" zoomAndPan="magnify" viewBox="0 0 375 374.999991" height="500" preserveAspectRatio="xMidYMid meet" version="1.0"><defs><clipPath id="c493f8475a"><path d="M 13 153 L 232 153 L 232 374 L 13 374 Z M 13 153 " clip-rule="nonzero"/></clipPath><clipPath id="d5bfe7ec87"><path d="M -31.492188 187.53125 L 124.503906 43.34375 L 338.933594 275.34375 L 182.933594 419.527344 Z M -31.492188 187.53125 " clip-rule="nonzero"/></clipPath><clipPath id="64ebe584e5"><path d="M -31.492188 187.53125 L 124.503906 43.34375 L 338.933594 275.34375 L 182.933594 419.527344 Z M -31.492188 187.53125 " clip-rule="nonzero"/></clipPath><clipPath id="661f0c7718"><path d="M 125 50 L 343 50 L 343 271 L 125 271 Z M 125 50 " clip-rule="nonzero"/></clipPath><clipPath id="105b812bcf"><path d="M 79.886719 84.585938 L 235.882812 -59.597656 L 450.3125 172.398438 L 294.3125 316.582031 Z M 79.886719 84.585938 " clip-rule="nonzero"/></clipPath><clipPath id="6a408ab77c"><path d="M 79.886719 84.585938 L 235.882812 -59.597656 L 450.3125 172.398438 L 294.3125 316.582031 Z M 79.886719 84.585938 " clip-rule="nonzero"/></clipPath></defs><g clip-path="url(#c493f8475a)"><g clip-path="url(#d5bfe7ec87)"><g clip-path="url(#64ebe584e5)"><path fill="#e4a1f7" d="M 231.617188 161.871094 L 43.480469 153.507812 C 7.140625 151.894531 1.003906 222.683594 44.058594 223.847656 L 161.128906 227.019531 L 152.1875 344.820312 C 149.464844 380.691406 219.421875 384.480469 221.421875 348.023438 Z M 231.617188 161.871094 " fill-opacity="1" fill-rule="nonzero"/></g></g></g><g clip-path="url(#661f0c7718)"><g clip-path="url(#105b812bcf)"><g clip-path="url(#6a408ab77c)"><path fill="#803bec" d="M 342.996094 58.925781 L 154.855469 50.566406 C 118.515625 48.949219 112.382812 119.738281 155.4375 120.90625 L 272.507812 124.078125 L 263.566406 241.875 C 260.84375 277.746094 330.800781 281.535156 332.796875 245.078125 Z M 342.996094 58.925781 " fill-opacity="1" fill-rule="nonzero"/></g></g></g></svg>